<svg xmlns="http://www.w3.org/2000/svg" viewBox="0 0 58.59 58.59"><defs><style>.cls-1{fill:#ed0031;}.cls-2{fill:#fff;}</style></defs><title>Asset 148</title><g id="Layer_2" data-name="Layer 2"><g id="Camada_2" data-name="Camada 2"><path class="cls-1" d="M29.29,0A29.3,29.3,0,1,1,0,29.29,29.29,29.29,0,0,1,29.29,0"/><path class="cls-2" d="M36.66,40.35l-4-4.89c-1.62-1.87-2.63-3.08-3.61-4.36H29a52.52,52.52,0,0,1-3.37,4.39l-3.75,4.86H17.25l9.52-11.19L17.62,18.24h4.67l4.11,5.18c1.16,1.44,2,2.56,2.87,3.74h.14a44.73,44.73,0,0,1,2.82-3.74l4.25-5.18H41.1L31.63,29l9.7,11.35Z"/></g></g></svg>