<svg xmlns="http://www.w3.org/2000/svg" viewBox="0 0 63 49"><defs><style>.cls-1{fill:#0071bc;}.cls-2{fill:#fdfdfd;}</style></defs><title>Asset 167</title><g id="Layer_2" data-name="Layer 2"><g id="Camada_2" data-name="Camada 2"><rect class="cls-1" width="63" height="49"/></g><g id="Camada_1" data-name="Camada 1"><path class="cls-2" d="M58.9,4.52c0-.65-.2-.77-.8-.77q-26.6,0-53.19,0c-.69,0-.82.2-.82.84q0,19.88,0,39.74c0,.92,0,.93.89.93H31.43q13.32,0,26.63,0c.62,0,.85-.1.85-.8Q58.87,24.49,58.9,4.52Zm-6.62,2.8c0,.24-.16.3-.27.41L33.83,25.44a9.34,9.34,0,0,1-1.43,1.31,1.39,1.39,0,0,1-2-.17c-1.91-1.82-3.79-3.66-5.68-5.5L11.06,7.8c-.13-.13-.34-.2-.35-.48ZM19,27.09,8,38.52l-.34.27V9.4l2,1.93c4.07,4,8.13,8,12.22,11.91.41.4.38.61,0,1s-.88.89-1.32,1.34M25.65,27a4.67,4.67,0,0,1,1.08,1s.24.24,1.08,1a5,5,0,0,0,7.24.12c.94-.83,1.82-1.73,2.69-2.62.34-.35.53-.3.83,0L51.39,40,53,41.69H10l2.45-2.54c3.95-4.09,8.07-8,11.87-12.26a.58.58,0,0,1,.21-.16C24.91,26.53,25.44,26.85,25.65,27Zm16-2.48c-.91-.88-.91-.87,0-1.76l13.29-13a.61.61,0,0,1,.4-.25V38.75a11.53,11.53,0,0,1-1.49-1.47Q48,31.18,42.15,25"/></g></g></svg>