<svg xmlns="http://www.w3.org/2000/svg" viewBox="0 0 58.59 58.59"><defs><style>.cls-1{fill:#3eb314;}.cls-2{fill:#fff;}</style></defs><title>Asset 168</title><g id="Layer_2" data-name="Layer 2"><g id="Camada_2" data-name="Camada 2"><path class="cls-1" d="M29.29,0A29.3,29.3,0,1,1,0,29.29,29.29,29.29,0,0,1,29.29,0"/></g><g id="Camada_1" data-name="Camada 1"><path class="cls-2" d="M16,10.14h3.68a2,2,0,0,1,2.16,2.14,26.19,26.19,0,0,0,1.2,7.5,2.14,2.14,0,0,1-.57,2.33c-1.41,1.4-2.8,2.82-4.21,4.21a.65.65,0,0,0-.14.91A32.28,32.28,0,0,0,31.35,40.48a.67.67,0,0,0,1-.16c1.35-1.39,2.74-2.74,4.1-4.13a2.28,2.28,0,0,1,2.51-.6A24.06,24.06,0,0,0,46,36.72a2.18,2.18,0,0,1,2.43,2.45v7a2.13,2.13,0,0,1-2.28,2.32,35.67,35.67,0,0,1-23.68-9A35.56,35.56,0,0,1,11,20.19a35.44,35.44,0,0,1-.88-7.82,2.11,2.11,0,0,1,2.23-2.23Z"/></g></g></svg>