<svg xmlns="http://www.w3.org/2000/svg" viewBox="0 0 58.59 58.59"><defs><style>.cls-1{fill:#148dff;}.cls-2{fill:#fff;}</style></defs><title>Asset 163</title><g id="Layer_2" data-name="Layer 2"><g id="Camada_2" data-name="Camada 2"><circle class="cls-1" cx="29.29" cy="29.29" r="29.29"/><path class="cls-2" d="M21.21,46.79a6.38,6.38,0,0,1-1.34-.51,3.46,3.46,0,0,1-1.74-2.75c0-.45,0-.91,0-1.36,0-4.74,0-9.48,0-14.22,0-.28.07-.35.34-.3a6.28,6.28,0,0,0,2,0c.25,0,.3.06.3.3q0,7.53,0,15a1.05,1.05,0,0,0,.45,1,1.16,1.16,0,0,0,.65.13H37.68A1,1,0,0,0,38.81,43V19.52a1.12,1.12,0,0,0-.49-1.09,1.27,1.27,0,0,0-.69-.12H29.42c-.26,0-.34,0-.34-.31a8.75,8.75,0,0,0-.32-2.16c0-.05,0-.11,0-.19h9a3.61,3.61,0,0,1,3.14,1.56,3.32,3.32,0,0,1,.61,1.67c0,.18,0,.36,0,.53q0,11.82,0,23.65a3.58,3.58,0,0,1-1.47,3,3.89,3.89,0,0,1-1.44.64s-.08,0-.08.06Z"/><path class="cls-2" d="M19.26,9.79a3.46,3.46,0,0,1-1,.12c.08-.1.23,0,.31-.12Z"/><path class="cls-2" d="M30,28.06H25.23a.87.87,0,0,1-.89-1.12.79.79,0,0,1,.62-.6,1.39,1.39,0,0,1,.41,0h9.27a1,1,0,0,1,.82.3.78.78,0,0,1,.17.89.81.81,0,0,1-.78.57H30Z"/><path class="cls-2" d="M30,31.71H34.8a.86.86,0,0,1,.9,1,1,1,0,0,1-.78.74H25.34a.93.93,0,0,1-1-1,.85.85,0,0,1,.91-.81H30Z"/><path class="cls-2" d="M30,39.08H25.28a.88.88,0,0,1-1-.95.87.87,0,0,1,.76-.8h9.64a.89.89,0,0,1,1,.85.87.87,0,0,1-.8.9c-.37,0-.75,0-1.12,0Z"/><path class="cls-2" d="M27.51,15.66a8.12,8.12,0,0,0-1.8-3.11A8.26,8.26,0,0,0,21.15,10l-.89-.18h-1c-.32.05-.64,0-1,.12L18,10A8.31,8.31,0,0,0,13.85,12a8.37,8.37,0,0,0-1.53,10.48,8.32,8.32,0,0,0,4,3.46,8.37,8.37,0,0,0,9.33-2.08,8.42,8.42,0,0,0,1.84-8.21Zm-8,9.14a6.62,6.62,0,1,1,6.61-6.61A6.62,6.62,0,0,1,19.52,24.8Z"/><path class="cls-2" d="M22,19.07H19.64a.91.91,0,0,1-1-1V13.91a.9.9,0,0,1,.88-1,.92.92,0,0,1,.91,1c0,1,0,2,0,3,0,.26.05.35.33.35,1.26,0,2.53,0,3.79,0a.88.88,0,0,1,.81.49.85.85,0,0,1-.1.95.9.9,0,0,1-.75.33Z"/></g></g></svg>