<svg xmlns="http://www.w3.org/2000/svg" viewBox="0 0 58.59 58.59"><defs><style>.cls-1{fill:#8d1bd4;}.cls-2{fill:#fff;}</style></defs><title>Asset 158</title><g id="Layer_2" data-name="Layer 2"><g id="Camada_2" data-name="Camada 2"><circle class="cls-1" cx="29.29" cy="29.29" r="29.29"/><path class="cls-2" d="M43.29,26.85V24.64c0-.13-.09-.25-.11-.38-.75-6.14-6.21-10.48-12-9.49C24.1,16,20.25,24.25,23.63,31c.09.17.18.35.3.61a3.92,3.92,0,0,0-4.05,1.49c-.87,1-1.78,2-2.71,2.89a6.17,6.17,0,0,0-1.88,3.06v1.28c.08.22.15.43.22.65,1.07,3,4.45,4,6.54,1.66,1.22-1.33,2.47-2.64,3.72-3.94a4.3,4.3,0,0,0,1.2-2.9c0-.26,0-.52,0-.81l.45.28c6.13,3.91,14,.37,15.6-7C43.12,27.8,43.2,27.33,43.29,26.85ZM32.8,18.66a6.92,6.92,0,0,1,6.74,7.1,7,7,0,0,1-6.66,7.16,7,7,0,0,1-6.75-7.12A6.93,6.93,0,0,1,32.8,18.66Z"/><path class="cls-2" d="M38.26,26a6.09,6.09,0,0,0-2-4.66,1.06,1.06,0,0,0-1.68,0,1.21,1.21,0,0,0,.28,1.72A3.58,3.58,0,0,1,36,26.72,1.18,1.18,0,0,0,36.32,28a.89.89,0,0,0,1.12.13,1.51,1.51,0,0,0,.57-.73A8.83,8.83,0,0,0,38.26,26Z"/></g></g></svg>