<svg xmlns="http://www.w3.org/2000/svg" viewBox="0 0 58.59 58.59"><defs><style>.cls-1{fill:#fff;}</style></defs><title>Ativo 100</title><g id="Camada_2" data-name="Camada 2"><g id="Camada_1-2" data-name="Camada 1"><path class="cls-1" d="M29.29,0A29.29,29.29,0,1,0,58.59,29.29,29.29,29.29,0,0,0,29.29,0Zm.43,6.62a5.09,5.09,0,0,1,5,5.1,5.07,5.07,0,1,1-10.14-.07A5.08,5.08,0,0,1,29.72,6.62ZM46.31,19.4a5.16,5.16,0,0,1-2.79,1.24,37,37,0,0,0-5.17,1.08,7.23,7.23,0,0,0-3.14,2.08,1.57,1.57,0,0,0-.33.81,21.6,21.6,0,0,0-.17,6,79.38,79.38,0,0,0,1.57,9.61c.48,2.31,1,4.61,1.47,6.92a15.72,15.72,0,0,1,.45,2.75,2,2,0,0,1-1.54,2.07,2.14,2.14,0,0,1-2.35-1.42c-.57-1.86-.86-3.78-1.26-5.68a51.64,51.64,0,0,0-2.27-8.74,5.2,5.2,0,0,0-.88-1.41.54.54,0,0,0-.9,0A5.53,5.53,0,0,0,27.7,37a66,66,0,0,0-1.93,7.91c-.37,1.76-.68,3.54-1.13,5.29a2.22,2.22,0,0,1-2.54,1.72,2.13,2.13,0,0,1-1.43-2.6c.8-3.88,1.66-7.75,2.41-11.63a63.18,63.18,0,0,0,1-6.81,45.57,45.57,0,0,0,.1-4.69,4.46,4.46,0,0,0-2.59-3.86A12.81,12.81,0,0,0,17.28,21a21.92,21.92,0,0,1-3.38-.67,4.93,4.93,0,0,1-1.22-.61,1.61,1.61,0,0,1-.84-1.81c.26-.78.9-1.22,2.11-1.22,1.24.22,2.81.51,4.39.77,1.93.31,3.87.6,5.82.82,1.5.17,3,.21,4.51.29A35.69,35.69,0,0,0,33,18.39q2.64-.19,5.25-.62c2-.33,4-.69,6-1a1.94,1.94,0,0,1,2.07.51A1.46,1.46,0,0,1,46.31,19.4Z"/></g></g></svg>