<svg xmlns="http://www.w3.org/2000/svg" viewBox="0 0 58.59 58.59"><defs><style>.cls-1{fill:#fff;}</style></defs><title>Asset 152</title><g id="Layer_2" data-name="Layer 2"><g id="Camada_1" data-name="Camada 1"><path class="cls-1" d="M29.29,0a29.3,29.3,0,1,0,29.3,29.29A29.29,29.29,0,0,0,29.29,0Zm-.71,37.31a1.05,1.05,0,0,0,.8.57,3.84,3.84,0,0,1,2.1,1.38c.17.21.29.41.1.7a11.31,11.31,0,0,1-1.68,2.21c-.21.2-.4.33-.68.15a1.85,1.85,0,0,0-2.14.06,3.8,3.8,0,0,1-.61.22,1.34,1.34,0,0,1-1.12-.85.78.78,0,0,1,.25-1,11.69,11.69,0,0,1,.91-.81,1.63,1.63,0,0,0,.14-2.82c-.25-.2-.1-.29.09-.4A1.35,1.35,0,0,1,28.58,37.31ZM22.07,10.17a3.5,3.5,0,0,1,3.46,3.54,3.51,3.51,0,1,1-7-.11A3.51,3.51,0,0,1,22.07,10.17ZM18.94,27a.11.11,0,0,1,0,.13,16.61,16.61,0,0,0-.29,2V38.9c0,1.78,0,3.56,0,5.34a1.8,1.8,0,0,1-2,1.85,1.89,1.89,0,0,1-1.87-1.93q0-6.28,0-12.57c0-.26.13-.55-.21-.76-1.3-.8-1.48-2.07-1.35-3.43.07-.66.2-1.32.3-2h0a15.73,15.73,0,0,1,2.35-6,3.55,3.55,0,0,1,3.41-1.8,2.14,2.14,0,0,1,2.06,2c.18,3,2.72,5.29,5.36,6.08a1.82,1.82,0,0,1,1.27.83,1.26,1.26,0,0,1-.56,1.69c-.21.09-.35.08-.47-.14a.75.75,0,0,0-.53-.43,23.93,23.93,0,0,1-2.09-1.34,10.87,10.87,0,0,1-4.1-6.54,1.48,1.48,0,0,0-1.79-1.12,1.56,1.56,0,0,0-1.22,1.7h0a.09.09,0,0,0,0,.05A4.51,4.51,0,0,0,17.66,22,11.27,11.27,0,0,0,19,25.08h0a.37.37,0,0,1,.13.15s0,.08,0,.12a.64.64,0,0,1,.2.51C19.23,26.24,19.09,26.63,18.94,27Zm1.17-.92a5.93,5.93,0,0,0-.47-.53,6,6,0,0,1-1.29-2,11.77,11.77,0,0,1-.69-1.73c-.12-.44-.21-.88-.29-1.33a1.4,1.4,0,0,1,2.71-.71c.17.44.25.91.4,1.37A10.83,10.83,0,0,0,26,27.51a.66.66,0,0,1,.4.38c.63.71.7,1.25.24,1.82s-1,.61-1.85.18A13.67,13.67,0,0,1,20.11,26.1Zm28.16,19c-.12.56-.56.54-1,.43a11.68,11.68,0,0,1-4.12-1.88l-.49-.33c.07.6.14,1.16.22,1.72s-.09.69-.59.74c-1.74.16-3.48,0-5.22,0-.36,0-.39-.17-.33-.45a1.59,1.59,0,0,1,.42-.65L37,44.46l-3.11.46c-.14,0-.31,0-.36.15-.19.7-.75.62-1.27.63-2.44,0-4.87,0-7.31.06-.41,0-.77-.08-.93-.5a.78.78,0,0,1,.21-.85.8.8,0,0,1,.59-.21l5.83-.59c-.26-.93-.26-.93.41-1.78a6.68,6.68,0,0,0,1.07-1.6,1,1,0,0,1,1-.64,18,18,0,0,1,5.76.22,11,11,0,0,1,4.5,2.34,8.8,8.8,0,0,0,4.21,2.13C48,44.38,48.39,44.54,48.27,45.1Z"/></g></g></svg>