<svg xmlns="http://www.w3.org/2000/svg" viewBox="0 0 58.59 58.59"><defs><style>.cls-1{fill:#fff;}</style></defs><title>Ativo 106</title><g id="Camada_2" data-name="Camada 2"><g id="Camada_2-2" data-name="Camada 2"><path class="cls-1" d="M29.29,0A29.29,29.29,0,1,0,58.59,29.29,29.29,29.29,0,0,0,29.29,0Zm4.22,47.49c-1.24,0-2.48,0-3.72,0s-2.4,0-3.61,0c-.58,0-.84-.12-.83-.77,0-2,0-3.93,0-5.9,0-.5,0-.81.69-.8,2.51,0,5,0,7.54,0,.61,0,.72.24.71.77,0,2,0,3.93,0,5.9C34.33,47.33,34.13,47.51,33.51,47.49ZM41.69,23.9h0a9.29,9.29,0,0,1-4.26,8.47c-.42.29-.84.57-1.28.84a3.4,3.4,0,0,0-1.77,3c0,.61-.19.9-.89.89-2.44,0-4.88,0-7.32,0-.61,0-.79-.18-.81-.8a6.92,6.92,0,0,1,3.25-6.61c.8-.51,1.53-1.12,2.31-1.65a3.91,3.91,0,0,0,1.95-3.66,4.16,4.16,0,0,1-.15-.52c-.33-2.2-1.2-3.06-3.27-3.22a3.37,3.37,0,0,0-3.78,2.71,4.11,4.11,0,0,0-.47,1.63c-2.53.25-5.07,0-7.61.1a1.9,1.9,0,0,1-1.07-.1,12.16,12.16,0,0,1,4-9.78c5-4.84,13.81-4.65,18.46.4A10.71,10.71,0,0,1,41.69,23.9Z"/></g></g></svg>