<svg xmlns="http://www.w3.org/2000/svg" viewBox="0 0 58.59 58.59"><defs><style>.cls-1{fill:#fff;}</style></defs><title>Ativo 93</title><g id="Camada_2" data-name="Camada 2"><g id="Camada_1-2" data-name="Camada 1"><path class="cls-1" d="M29,26.5a3.16,3.16,0,0,0-2.47,3.91,1,1,0,0,0,.17.63,3.69,3.69,0,0,0,6.07.28,1.39,1.39,0,0,0,.36-.91s0-.1,0-.14A3.29,3.29,0,0,0,29,26.5Z"/><path class="cls-1" d="M39.26,26.5a3.16,3.16,0,0,0-2.47,3.91A1,1,0,0,0,37,31a3.69,3.69,0,0,0,6.07.28,1.39,1.39,0,0,0,.36-.91s0-.1,0-.14A3.3,3.3,0,0,0,39.26,26.5Z"/><path class="cls-1" d="M18.67,26.51a3.15,3.15,0,0,0-2.43,3.9,1.16,1.16,0,0,0,.23.72,3.67,3.67,0,0,0,5.29.91,2.22,2.22,0,0,0,1.09-1.64s0-.1,0-.14A3.3,3.3,0,0,0,18.67,26.51Z"/><path class="cls-1" d="M29.29,0A29.29,29.29,0,1,0,58.59,29.29,29.29,29.29,0,0,0,29.29,0Zm18,37c0-.38,0-.76,0-1.14a.62.62,0,0,0,0-.24,6,6,0,0,1-4.69,5.28,7.62,7.62,0,0,1-1.8.22H28.81a1.64,1.64,0,0,0-1.05.35q-4.18,3.12-8.36,6.23a1.4,1.4,0,0,1-.52.32c-.15-.1-.09-.25-.09-.38,0-1.59,0-3.18,0-4.77,0-.13,0-.27-.06-.39a6.78,6.78,0,0,1,0-1c0-.26-.08-.35-.38-.37a6.41,6.41,0,0,1-5.82-3.76,1.64,1.64,0,0,1-.1-.26c0-.09,0-.19-.06-.29,0,.09.05.19-.06.26,0-.64-.13-1.27-.13-1.91q0-5.82,0-11.64a6.07,6.07,0,0,1,6.33-5.85q11.2,0,22.4,0a6.07,6.07,0,0,1,6.31,5.77c0,.25,0,.5,0,.75a7.22,7.22,0,0,1,.07,1.09q0,5.58,0,11.16A1.33,1.33,0,0,1,47.25,37Z"/><path class="cls-1" d="M47.25,25.06a3.56,3.56,0,0,1,0-.88c-.1.1-.06.22-.06.33q0,5.52,0,11a.19.19,0,0,1,.06.07c0-.06,0-.11,0-.17Q47.25,30.25,47.25,25.06Z"/></g></g></svg>