<svg xmlns="http://www.w3.org/2000/svg" viewBox="0 0 58.59 58.59"><defs><style>.cls-1{fill:#fff;}</style></defs><title>Ativo 96</title><g id="Camada_2" data-name="Camada 2"><g id="Camada_1-2" data-name="Camada 1"><path class="cls-1" d="M29.29,0A29.29,29.29,0,1,0,58.59,29.29,29.29,29.29,0,0,0,29.29,0ZM49,32l-5.13,2.14a1.41,1.41,0,0,0-.68.63,1.83,1.83,0,0,0,0,1.92c.71,1.54,1.33,3.12,2,4.68a.41.41,0,0,1-.11.54Q43.43,43.43,41.88,45a.43.43,0,0,1-.57.1l-5.2-2.2a1,1,0,0,0-.8,0,2.29,2.29,0,0,0-1.49,1.58C33.25,46,32.59,47.44,32,48.91a.54.54,0,0,1-.59.41c-1.41,0-2.83,0-4.24,0a.47.47,0,0,1-.52-.33c-.71-1.73-1.45-3.44-2.15-5.17a1,1,0,0,0-.59-.61c-.34-.13-.66-.3-1-.45l-.42.17c-1.72.72-3.44,1.44-5.16,2.18a.5.5,0,0,1-.67-.14q-1.49-1.53-3-3a.53.53,0,0,1-.13-.7c.75-1.75,1.48-3.52,2.22-5.27a.67.67,0,0,0,0-.51A2.45,2.45,0,0,0,14,33.79c-1.5-.54-2.94-1.22-4.42-1.82a.49.49,0,0,1-.36-.55q0-2.14,0-4.28a.47.47,0,0,1,.35-.52c1.74-.72,3.47-1.46,5.21-2.17a1.22,1.22,0,0,0,.56-.54,1.94,1.94,0,0,0,0-2.1c-.69-1.48-1.27-3-1.92-4.5a.48.48,0,0,1,.13-.64q1.56-1.52,3.08-3.08a.46.46,0,0,1,.6-.11l5.31,2.24a.54.54,0,0,0,.58,0,.72.72,0,0,1,.24-.13c.78-.16,1.06-.76,1.32-1.42.6-1.52,1.26-3,1.88-4.52a.47.47,0,0,1,.51-.35q2.16,0,4.32,0a.44.44,0,0,1,.49.33c.7,1.7,1.43,3.39,2.13,5.1a1.48,1.48,0,0,0,.71.76,1.75,1.75,0,0,0,1.78,0c1.57-.72,3.17-1.35,4.76-2a.41.41,0,0,1,.54.1Q43.42,15.15,45,16.7a.43.43,0,0,1,.12.57c-.75,1.74-1.47,3.49-2.21,5.23a.66.66,0,0,0,0,.76l0,0a2.18,2.18,0,0,0,1.61,1.5c1.5.57,3,1.23,4.45,1.85a.42.42,0,0,1,.3.46c0,1.45,0,2.91,0,4.36A.45.45,0,0,1,49,32Z"/><path class="cls-1" d="M29.28,21.77a7.47,7.47,0,1,0,7.48,7.51A7.44,7.44,0,0,0,29.28,21.77Z"/></g></g></svg>