<svg xmlns="http://www.w3.org/2000/svg" viewBox="0 0 58.59 58.59"><defs><style>.cls-1{fill:#fff;}</style></defs><title>Asset 135</title><g id="Layer_2" data-name="Layer 2"><g id="Camada_2" data-name="Camada 2"><path class="cls-1" d="M29.29,0a29.3,29.3,0,1,0,29.3,29.29A29.29,29.29,0,0,0,29.29,0Zm16.4,41.47a3,3,0,0,1-1.08,1.23,8.43,8.43,0,0,1-1.94,1,11.15,11.15,0,0,1-2.29.66,7.28,7.28,0,0,1-2.18,0,2.73,2.73,0,0,1-1.64-.78C36,43.05,35,42,33.64,40.48s-2.92-3.18-4.67-5q-2.55,2.73-4.56,5c-1.34,1.51-2.31,2.59-2.89,3.23a3.14,3.14,0,0,1-2.62.93A10.23,10.23,0,0,1,15.45,44a6.79,6.79,0,0,1-2.59-1.61,1.33,1.33,0,0,1-.13-2c.36-.39.87-1,1.54-1.72L16.65,36l3-3.28,3.29-3.61q-1.82-1.93-3.52-3.72t-3.12-3.28L13.87,19.6l-1.41-1.47a1.3,1.3,0,0,1,.13-1.93,7.08,7.08,0,0,1,2.62-1.66,10.45,10.45,0,0,1,3.53-.69,3.5,3.5,0,0,1,2.78,1c.09.12.35.4.77.84l1.65,1.73,2.28,2.39L29,22.67l4.67-5,2.65-2.86A2.83,2.83,0,0,1,38,13.91a8,8,0,0,1,2.25-.06,9.25,9.25,0,0,1,2.35.57,8.06,8.06,0,0,1,2,1,2.76,2.76,0,0,1,1.05,1.31,1.36,1.36,0,0,1-.37,1.38c-.14.14-.5.54-1.08,1.18s-1.34,1.46-2.28,2.46l-3.19,3.36C37.48,26.37,36.26,27.67,35,29l3.33,3.57,3,3.26,2.45,2.64,1.61,1.75A1.13,1.13,0,0,1,45.69,41.47Z"/></g></g></svg>