<svg xmlns="http://www.w3.org/2000/svg" viewBox="0 0 60.4 60.4"><defs><style>.cls-1{fill:#fff;}</style></defs><title>Ativo 89</title><g id="Camada_2" data-name="Camada 2"><g id="Camada_1-2" data-name="Camada 1"><path class="cls-1" d="M30.2,0A30.2,30.2,0,1,0,60.4,30.2,30.2,30.2,0,0,0,30.2,0Zm2.89,29.89a1.28,1.28,0,0,1-1.18-.15A22.36,22.36,0,0,1,26,24.6c-.4-.31-.51,0-.58.3q-.72,3.28-1.44,6.56a.68.68,0,0,0,.08.58c.08.11.13.24.22.34,3.25,4,4.42,8.79,5.61,13.6a2.21,2.21,0,1,1-4.25,1.16c-.45-1.6-.86-3.21-1.31-4.81a16.41,16.41,0,0,0-.92-3C22.81,38,21.93,36.84,21,35.39a16.54,16.54,0,0,0-.21,2.05,10.45,10.45,0,0,1-1,4.33c-.75,1.82-1.42,3.67-2.15,5.5a2.23,2.23,0,0,1-3,1.54,2.26,2.26,0,0,1-1.12-3.16c.64-1.68,1.22-3.39,2-5,1.26-2.77.85-5.74,1.16-8.62-1.45-2.86.4-5.47.61-8.2,0-.29.23-.57,0-1a27.63,27.63,0,0,0-3.77,3.85,7.74,7.74,0,0,1-.6.69,1.71,1.71,0,0,1-2.32.07,1.64,1.64,0,0,1-.32-2.21,26,26,0,0,1,5.48-5.56A10.1,10.1,0,0,1,23.38,17h0a4.71,4.71,0,0,1-2.83-4.33,4.46,4.46,0,1,1,3.69,4.47l-.9-.18h0a14.55,14.55,0,0,1,4.43,4.35,22.71,22.71,0,0,0,5.55,5.18,1.89,1.89,0,0,1,1.08,2.1c-.12.52.25.73.52,1l4.36,4.55c1.41,1.36,2.82,2.72,4.24,4.07.26.25.26.4,0,.65s-.51.33-.83,0a50.22,50.22,0,0,1-4-4.13c-1.44-1.48-2.89-3-4.32-4.46C34,30,33.7,29.64,33.09,29.89ZM46.52,48.38c-.64,0-.82-.46-.85-1,0-.8.37-1.88-.17-2.34s-1.69-.13-2.56-.17c-.7,0-1.4,0-2.26,0,.44.78.79,1.42,1.16,2.05s.5,1-.15,1.4-1-.12-1.27-.62l-1.35-2.34-1.33,2.52c-.26.48-.63.74-1.16.45s-.46-.71-.28-1.15a3,3,0,0,1,.37-.72c1.16-1.46,1-3.18,1-4.87a1,1,0,0,0-.49-.83c-.39-.32-.81-.63-1.16-1a.73.73,0,0,1,0-1,.76.76,0,0,1,.92-.21.57.57,0,0,1,.26.16c1.06,1.31,2.53,1.39,4,1.16,2.32-.36,4,.9,5.82,1.94.38.22.37.52.36.86,0,1.56,0,3.12,0,4.69C47.31,47.86,47.17,48.36,46.52,48.38ZM51.36,40c-.14.61-.77,1-1.73,1l-.85-.18c-.19,0-.5-.19-.56-.12-.8.93-1.45.19-2.09-.19s-1.81-.6-1.94-1.29.73-1.29,1.15-1.94a8.27,8.27,0,0,0,1.08-2.07c.11-.38.3-.73.77-.65a.81.81,0,0,1,.67.9c0,1.51,1.13,2.15,2.1,2.94a3.92,3.92,0,0,0,.45.23C50.9,39,51.55,39.2,51.36,40Z"/></g></g></svg>