<svg xmlns="http://www.w3.org/2000/svg" viewBox="0 0 60.4 60.4"><defs><style>.cls-1{fill:#fff;}</style></defs><title>Ativo 90</title><g id="Camada_2" data-name="Camada 2"><g id="Camada_1-2" data-name="Camada 1"><path class="cls-1" d="M30.2,0A30.2,30.2,0,1,0,60.4,30.2,30.2,30.2,0,0,0,30.2,0Zm8.86,18.14a2.09,2.09,0,0,1,2.05.88,2.72,2.72,0,0,1,.54,1.65c0,.11,0,.21,0,.32l0,0a5.83,5.83,0,0,1-2.33,4.46,2.43,2.43,0,0,1-1.82.5,2.13,2.13,0,0,1-1.72-1.33,3.66,3.66,0,0,1-.25-2.06A6,6,0,0,1,37.34,19,3,3,0,0,1,39.06,18.14Zm-7.17-5.35a6.18,6.18,0,0,1,1.28-1.85,2.46,2.46,0,0,1,1.71-.73,2,2,0,0,1,1.92,1.16,4.42,4.42,0,0,1,.45,2.41,7.34,7.34,0,0,1-1.11,3.52A3.61,3.61,0,0,1,34,18.94,1.9,1.9,0,0,1,31.73,18a4.25,4.25,0,0,1-.57-2.31A7.39,7.39,0,0,1,31.89,12.78Zm-7-2.1a2.75,2.75,0,0,1,1.55-.95h.06a3.33,3.33,0,0,1,1.32.44A4.37,4.37,0,0,1,29,11.61a7.49,7.49,0,0,1,.83,2.81c0,.25,0,.5.05.74a5.24,5.24,0,0,1-.45,2.2,2.27,2.27,0,0,1-1.49,1.38,2.16,2.16,0,0,1-2.14-.61,5.27,5.27,0,0,1-1.21-1.93,7.39,7.39,0,0,1-.51-3A4.17,4.17,0,0,1,24.88,10.69Zm-6.19,8.39c0-.12.07-.24.09-.35a3.35,3.35,0,0,1,.66-1.49,1.86,1.86,0,0,1,1.38-.68,3,3,0,0,1,2.49,1.14,5.81,5.81,0,0,1,1.39,3A4.32,4.32,0,0,1,24.54,23a2,2,0,0,1-1.6,1.42,2.78,2.78,0,0,1-2.24-.59A4.59,4.59,0,0,1,19.36,22a8.88,8.88,0,0,1-.6-1.94,1.69,1.69,0,0,0-.07-.2Zm6.78,33.35q-3.66,0-7.32,0c-.29,0-.33-.11-.33-.36,0-1.72,0-3.44,0-5.16a1.08,1.08,0,0,1-.22-.66L10,36.2a5.18,5.18,0,0,1-.89-1.52V17.26a2.86,2.86,0,0,1,1.11-1.53,2.33,2.33,0,0,1,3.59,2c.06,3.11,0,6.22,0,9.33,0,.2-.09.27-.25.3a3.12,3.12,0,0,0-1.34,5.21c1.4,1.47,2.83,2.92,4.24,4.38.16.17.24.13.39,0,.41-.4.41-.39,0-.79-1.33-1.37-2.67-2.73-4-4.1A2.32,2.32,0,0,1,16,28.57c.15.13.28.27.42.4l9.27,9.5a.88.88,0,0,0,.25.61q0,6.45,0,12.9A.43.43,0,0,0,25.48,52.42Zm8.81-19.77a3.57,3.57,0,0,1-1.94-.46A5.16,5.16,0,0,0,31,31.73a4.29,4.29,0,0,0-1.82.13l-1.84.54a5.7,5.7,0,0,1-2.22.26A4.51,4.51,0,0,1,23.07,32a1.6,1.6,0,0,1-.72-1.23,3.87,3.87,0,0,1,.35-1.94,15.25,15.25,0,0,1,3.07-4.73,12.17,12.17,0,0,1,2.46-2,3.51,3.51,0,0,1,1.92-.55,3.86,3.86,0,0,1,2,.67,8.78,8.78,0,0,1,2,1.92,19.26,19.26,0,0,1,1.89,2.66,8.23,8.23,0,0,1,1,2.67,4.45,4.45,0,0,1,0,1.07,1.79,1.79,0,0,1-.85,1.32,6.83,6.83,0,0,1-1.51.76A1.42,1.42,0,0,1,34.28,32.66ZM50.95,35.9c-2.62,3.44-5.22,6.9-7.83,10.34a1.1,1.1,0,0,1-.22.67c0,1.72,0,3.43,0,5.15,0,.3-.09.36-.37.36q-3.65,0-7.3,0c-.31,0-.43-.07-.43-.42q0-6.47,0-12.94a.79.79,0,0,0,.23-.56l9.46-9.7a2.42,2.42,0,0,0,2.39-.67,2.17,2.17,0,0,1,1.57,1.56,2.49,2.49,0,0,0-.65,2.38l-1.54,1.58c-.87.89-1.73,1.79-2.62,2.66-.22.22-.15.34,0,.47s.25.65.78-.13a13,13,0,0,0,3.35-3.51,3.2,3.2,0,0,0,0-5.51,1.42,1.42,0,0,0-.45-.2c-.43-.06-.51-.29-.51-.7,0-2.93,0-5.86,0-8.79a2.38,2.38,0,0,1,1.64-2.46,2.34,2.34,0,0,1,3.05,2,5.14,5.14,0,0,1,0,.54q0,4,0,8c0,2.62,0,5.25,0,7.87A3.26,3.26,0,0,0,50.95,35.9Z"/></g></g></svg>