<svg xmlns="http://www.w3.org/2000/svg" viewBox="0 0 58.59 58.59"><defs><style>.cls-1{fill:#fff;}</style></defs><title>Ativo 91</title><g id="Camada_2" data-name="Camada 2"><g id="Camada_1-2" data-name="Camada 1"><path class="cls-1" d="M29.29,0A29.29,29.29,0,1,0,58.59,29.29,29.29,29.29,0,0,0,29.29,0ZM25.47,44.3H14.94a6.48,6.48,0,0,0-1.49-.81,3.1,3.1,0,0,1-1.28-.61c-3.19-2.76-2.54-5.33.39-6.51-.64-1.78-2.14-2.69-3.47-3.77V32a1.56,1.56,0,0,1,1.82,0,6.14,6.14,0,0,1,2.79,3.38c.37,1,0,1.67-1.09,2.41a2,2,0,0,0,.06,3.52c.53.33.91.46,1.18-.42a15.88,15.88,0,0,1,7.65-9.4,1.33,1.33,0,0,1,1,0c1.34.57,2.64,1.21,3.84,1.77,0,3,0,6,0,9a1.78,1.78,0,0,0,0,.48A1.05,1.05,0,0,1,25.47,44.3Zm3-13.92c-.63.46-1.21,1-2,1.67-.5-.18-1.25-.39-2-.71s-2-.68-2.19-1.26c-.35-1.31-.87-2.73-.16-4.17.39-.81.51-1.74.84-2.58s.76-.87,1.33-.16a1,1,0,0,1,.17.24,2.64,2.64,0,0,0,2.45,1.93c.3,0,.61.5.87.8s.57.87.93,1.23A2,2,0,0,1,28.48,30.38ZM28,18.75c-1.41-2.43-.93-3.67,1.54-3.69a2.15,2.15,0,0,0,2.34-1.33c.5-1.15,1.68-.9,2.72-1,.07-.63.1-1.21.22-1.78.05-.25.29-.66.45-.66a1.06,1.06,0,0,1,.78.42,8.68,8.68,0,0,1,1,1.89c.78,2.33,1.5,4.68,2.3,7.22l-6.34,2.13c-.13-1.4-.94-1.82-2-2A10.23,10.23,0,0,1,28,18.75ZM47.73,40.89c-.43,1.54-1.08,2.89-2.76,3.41H32.49c-1.9-1.17-2.24-3.08-2.07-5,.35-4,.89-8,1.4-12,.14-1.12.47-2.22.67-3.34a1.19,1.19,0,0,1,.92-1.08c2-.6,4-1.26,6.13-1.94,2.13,7.06,4.33,14,4.81,21.49,1.81-1.55,2.22-3.81,3.14-6l.84,1.37A6.54,6.54,0,0,1,47.73,40.89Z"/></g></g></svg>