<svg xmlns="http://www.w3.org/2000/svg" viewBox="0 0 60.4 60.4"><defs><style>.cls-1{fill:#fff;}</style></defs><title>Ativo 97</title><g id="Camada_2" data-name="Camada 2"><g id="Camada_1-2" data-name="Camada 1"><path class="cls-1" d="M46.56,40c-2.2,0-4.4,0-6.6,0s-4.4,0-6.6,0c-.48,0-.71.1-.71.65s.21.66.71.65q6.6,0,13.2,0c.53,0,.67-.18.67-.68S47,40,46.56,40Z"/><path class="cls-1" d="M32.65,33.84c0,.54.21.66.71.65,2.18,0,4.35,0,6.53,0s4.45,0,6.67,0c.47,0,.66-.11.66-.62s-.12-.7-.66-.69q-6.6,0-13.2,0C32.87,33.18,32.65,33.3,32.65,33.84Z"/><path class="cls-1" d="M46.55,43.48q-6.6,0-13.2,0c-.5,0-.7.13-.7.66s.24.64.72.64c2.18,0,4.35,0,6.53,0s4.45,0,6.67,0c.47,0,.65-.13.66-.62S47.07,43.47,46.55,43.48Z"/><path class="cls-1" d="M28.46,40q-6.59,0-13.18,0c-.5,0-.7.13-.7.66s.24.65.72.64c2.2,0,4.39,0,6.59,0s4.39,0,6.59,0c.5,0,.7-.13.7-.66S28.94,40,28.46,40Z"/><path class="cls-1" d="M28.46,43.48c-2.2,0-4.39,0-6.59,0s-4.39,0-6.59,0c-.5,0-.7.13-.7.66s.23.64.71.64q6.59,0,13.18,0c.5,0,.7-.12.7-.66S28.94,43.47,28.46,43.48Z"/><path class="cls-1" d="M15.3,37.86c2.18,0,4.35,0,6.53,0s4.44,0,6.66,0c.52,0,.68-.19.67-.69s-.38-.53-.75-.53H18.21c-1,0-2,0-3.05,0-.42,0-.55.18-.57.58C14.55,37.78,14.83,37.87,15.3,37.86Z"/><path class="cls-1" d="M39.88,37.86c2.22,0,4.44,0,6.66,0,.51,0,.69-.15.68-.68s-.34-.55-.73-.55h-13c-.45,0-.81,0-.8.64s.36.59.78.59Z"/><path class="cls-1" d="M15.37,34.48H21.9c2.17,0,4.35,0,6.52,0,.51,0,.76-.08.76-.67s-.26-.64-.73-.63q-6.56,0-13.12,0c-.5,0-.75.09-.76.68S14.92,34.49,15.37,34.48Z"/><path class="cls-1" d="M30.2,0A30.2,30.2,0,1,0,60.4,30.2,30.2,30.2,0,0,0,30.2,0ZM41.59,8.74l3.32,9H17.73l0-.15ZM9,37.44l-.13,0c-.19-.48-.4-1-.57-1.44-1.55-4.18-3.08-8.37-4.64-12.55-.2-.53-.08-.72.43-.9,1.42-.49,2.82-1,4.23-1.56.21-.08.43-.13.69-.2Zm42.12,10.3H10.69V19.37H51.13Z"/><path class="cls-1" d="M16.2,29.35c.35,0,.86.18.83-.5s-.06-1.38-.08-2.08c0-.53,0-1.06,0-1.59a31.45,31.45,0,0,1,2.62,3.29,1.85,1.85,0,0,0,1.92.89c.41,0,.57-.16.56-.58,0-1.48,0-3,0-4.44,0-.59-.29-.61-.73-.61s-.76,0-.74.61c0,1.1,0,2.21,0,3.41a2.06,2.06,0,0,1-.31-.28,31.32,31.32,0,0,1-1.95-2.69,2.08,2.08,0,0,0-2.4-1,.7.7,0,0,0-.46.48c0,1.53,0,3.05,0,4.58C15.45,29.43,15.83,29.37,16.2,29.35Z"/><path class="cls-1" d="M23.93,26.52c0,.76,0,1.53,0,2.29,0,.38.13.55.52.54,1.32,0,2.64,0,4,0,.16,0,.31-.28.46-.43-.16-.14-.31-.39-.48-.41a16.41,16.41,0,0,0-2.15,0c-.61,0-.73-.23-.73-.77s.1-.89.76-.85a15.33,15.33,0,0,0,1.6,0c.29,0,.72.13.7-.41s-.44-.37-.73-.38c-.55,0-1.11,0-1.67,0s-.66-.26-.65-.74.08-.76.64-.73,1.34,0,2,0c.31,0,.55,0,.55-.43s-.22-.45-.54-.44c-1.23,0-2.46,0-3.68,0-.42,0-.59.13-.57.56C23.95,25,23.93,25.78,23.93,26.52Z"/><path class="cls-1" d="M31.68,29a.83.83,0,0,0,.55.38,7.9,7.9,0,0,0,.9,0c.44,0,.62-.17.73-.56.31-1.09.64-2.17,1-3.25A5,5,0,0,1,35,25c.35,1.31.66,2.46,1,3.61.1.37.15.77.67.69s1.31.34,1.62-.6c.51-1.53,1.1-3,1.65-4.56a1.63,1.63,0,0,0,0-.39c-1.51-.15-1.51-.15-1.88,1.19l-.83,3h-.15c0-.15-.11-.3-.15-.45-.25-1-.54-2-.74-3-.13-.65-.41-.82-1.07-.84a1,1,0,0,0-1.26,1c-.2.92-.51,1.82-.77,2.73l-.2.67a1.48,1.48,0,0,1-.33-.67c-.27-1.05-.55-2.1-.8-3.16-.09-.38-.25-.56-.66-.53s-.73,0-1.1,0A1,1,0,0,0,30,24C30.57,25.66,31.1,27.31,31.68,29Z"/><path class="cls-1" d="M41.69,28.4a.8.8,0,0,0-.6.34c-.19.34.08.49.39.55a6.53,6.53,0,0,0,3.69-.17,1.56,1.56,0,0,0,1.17-1.33c0-.69-.48-1.08-1.06-1.31s-1.24-.37-1.83-.64c-.29-.13-.5-.46-.75-.7.28-.2.55-.55.85-.57a15.69,15.69,0,0,1,2.1.08l.29-.71A5.55,5.55,0,0,0,42,24a1.34,1.34,0,0,0-1,1.25A1.27,1.27,0,0,0,42,26.47c.64.26,1.33.41,2,.69.29.13.47.48.71.74-.25.2-.5.57-.76.58C43.15,28.52,42.42,28.4,41.69,28.4Z"/></g></g></svg>