<svg xmlns="http://www.w3.org/2000/svg" viewBox="0 0 58.59 58.59"><defs><style>.cls-1{fill:#fff;}</style></defs><title>Asset 172</title><g id="Layer_2" data-name="Layer 2"><g id="Camada_1" data-name="Camada 1"><path class="cls-1" d="M29.29,0a29.3,29.3,0,1,0,29.3,29.29A29.29,29.29,0,0,0,29.29,0ZM8.5,31.88c-.32.58-.62.77-1.23.35A28.15,28.15,0,0,0,4.59,30.6c-.66-.35-.71-.7-.35-1.32q3.64-6.41,7.26-12.82c.86-1.52.52-1.47,2.08-.53.78.46,1.54.94,2.31,1.4.21.13.42.25.43.54l-.26.52Q12.28,25.14,8.5,31.88ZM13.34,39a1.8,1.8,0,0,1-1.65-1,1.65,1.65,0,0,1,.09-2c.29-.35.54-.74.83-1.11a1.5,1.5,0,0,1,2.05-.44,1.94,1.94,0,0,1,1,2.16A7.6,7.6,0,0,1,14,38.76.87.87,0,0,1,13.34,39Zm2.06,3.26a1.74,1.74,0,0,1-.77-2.32c1.13-1.67,2.34-3.28,3.54-4.9a1.17,1.17,0,0,1,1-.38,2,2,0,0,1,1.6,1.1,1.6,1.6,0,0,1-.1,1.84c-1,1.41-2.07,2.83-3.12,4.23A1.44,1.44,0,0,1,15.4,42.22ZM19.46,45a2,2,0,0,1-1.26-1.8,1.54,1.54,0,0,1,.34-1c.8-1.07,1.58-2.16,2.38-3.23a1.48,1.48,0,0,1,2.16-.38,1.77,1.77,0,0,1,.71,2.34c-.85,1.27-1.78,2.49-2.69,3.71A1.29,1.29,0,0,1,19.46,45Zm7.4-.5c-.59.83-1.17,1.67-1.82,2.46a1.52,1.52,0,0,1-2.05,0,1.84,1.84,0,0,1-.62-2.26c.56-.85,1.17-1.67,1.8-2.47a1.33,1.33,0,0,1,1.66-.32,1.92,1.92,0,0,1,1.23,1.83A1,1,0,0,1,26.86,44.45Zm18.32-7.11a1.86,1.86,0,0,1-2,1,3.33,3.33,0,0,1-1.2-.5l-6.81-4.12a2.86,2.86,0,0,0-.52-.27.48.48,0,0,0-.61.26.44.44,0,0,0,.12.59,3.87,3.87,0,0,0,.43.27L41,38.44c.41.25.89.45.77,1.09s-.28,1.38-1,1.65A2.58,2.58,0,0,1,38.41,41c-1.83-1.11-3.7-2.15-5.55-3.22l-.26-.14c-.3-.16-.56-.15-.74.18s0,.51.24.66c.43.27.88.52,1.32.78l4.24,2.44c.36.21.86.31.72.93s-.34,1.39-1.1,1.57a3.21,3.21,0,0,1-2.35-.2c-1.42-.74-2.88-1.41-4.32-2.11-.33-.16-.7-.35-.95.1s.16.64.48.79c1.38.67,2.75,1.35,4.15,2,.48.22.5.39.16.77a3.25,3.25,0,0,1-2.62,1.21,16.46,16.46,0,0,1-4.49-1c-.07-.21,0-.28.11-.37a2.89,2.89,0,0,0-1.88-4.63c-.47-.06-.57-.21-.58-.67a3,3,0,0,0-2.52-2.87c-.34,0-.46-.07-.44-.5a3,3,0,0,0-3.6-3c-.84.24-1.26.95-1.82,1.64a3.24,3.24,0,0,0-1.73-1.92,2.27,2.27,0,0,0-2.64.38c-.28.26-.42.29-.66,0-.46-.6-.94-1.18-1.44-1.75a.64.64,0,0,1-.1-.89Q13,25.87,16,20.57c.23-.41.42-.5.81-.2a8,8,0,0,0,3.7,1.21l1,.18L19,25.65a3.36,3.36,0,0,0-.54,1.73,1.44,1.44,0,0,0,1.42,1.68,5.79,5.79,0,0,0,3.87-1,9.82,9.82,0,0,0,2.63-2.51,2.65,2.65,0,0,1,2.93-.66,81,81,0,0,1,14.09,9.22c.47.38.93.78,1.37,1.2A1.67,1.67,0,0,1,45.18,37.34Zm3.26-5.87a21.52,21.52,0,0,1-2.67,2.38.89.89,0,0,1-1.22-.09,82.41,82.41,0,0,0-15.28-10A1.4,1.4,0,0,0,28,23.6c-.53.19-1.07.34-1.6.5a1.46,1.46,0,0,0-.72.58,7.56,7.56,0,0,1-4.26,3.24,7.62,7.62,0,0,1-.94.14c-.94.1-1.22-.22-1-1.12a4.3,4.3,0,0,1,.55-1.19c1.08-1.74,2.31-3.37,3.49-5A2,2,0,0,1,24.7,20a24.24,24.24,0,0,1,6.21-.75,19.91,19.91,0,0,1,6.71.81,7,7,0,0,0,4.17.06c.43-.16.56.09.72.37l5.86,10.43C48.47,31.06,48.69,31.25,48.44,31.47Zm5.79-1c-1.09.65-2.16,1.32-3.25,2l-.24.12c-.3,0-.4-.19-.5-.38q-3.9-6.93-7.81-13.86c-.25-.43-.19-.7.25-.95,1-.61,2-1.23,3-1.87.42-.26.67-.2.92.25q3.85,6.89,7.74,13.74C54.61,29.82,54.69,30.15,54.23,30.42Z"/></g></g></svg>