<svg xmlns="http://www.w3.org/2000/svg" viewBox="0 0 58.59 58.59"><defs><style>.cls-1{fill:#fff;}</style></defs><title>Ativo 94</title><g id="Camada_2" data-name="Camada 2"><g id="Camada_1-2" data-name="Camada 1"><path class="cls-1" d="M29.29,0A29.29,29.29,0,1,0,58.59,29.29,29.29,29.29,0,0,0,29.29,0ZM44.14,40.58a3.25,3.25,0,0,1-2,2.63,10.51,10.51,0,0,1-3.3.79,71.41,71.41,0,0,1-8.05.18c-2.64,0-5.28,0-7.92,0a32.64,32.64,0,0,1-5.27-.35,10.12,10.12,0,0,1-1.72-.42,3.56,3.56,0,0,1-2.66-3.88,9.77,9.77,0,0,1,2.29-5.84A16.38,16.38,0,0,1,24,28.14l2.18-.64-2-1.35a8.23,8.23,0,0,1-3.8-7.59,8.42,8.42,0,0,1,6.87-7.64,8.32,8.32,0,0,1,9.64,6.73A8.06,8.06,0,0,1,33.42,26c-.7.51-1.43,1-2.21,1.49.59.18,1.13.35,1.67.49a17.38,17.38,0,0,1,7.36,3.9,12,12,0,0,1,3.69,5.7A7.33,7.33,0,0,1,44.14,40.58Z"/></g></g></svg>