<svg xmlns="http://www.w3.org/2000/svg" viewBox="0 0 60.4 60.4"><defs><style>.cls-1{fill:#fff;}</style></defs><title>Ativo 88</title><g id="Camada_2" data-name="Camada 2"><g id="Camada_1-2" data-name="Camada 1"><path class="cls-1" d="M30.2,0A30.2,30.2,0,1,0,60.4,30.2,30.2,30.2,0,0,0,30.2,0Zm1.71,17c.72-4,3.61-6.84,6.45-6.33s4.56,4.17,3.84,8.18-3.61,6.84-6.45,6.33S31.18,21,31.91,17Zm-10-6.21c2.79-.72,5.89,1.89,6.91,5.83s-.42,7.72-3.21,8.45-5.89-1.89-6.91-5.83S19.09,11.47,21.88,10.74ZM10.52,32.36c-2.28-3.37-2.2-7.42.19-9s6.18-.2,8.46,3.17,2.2,7.42-.19,9S12.8,35.73,10.52,32.36ZM44.09,47.8a4,4,0,0,1-1.78,1.78c-2.88,1.3-5.48-2.77-10.66-2.66a16.47,16.47,0,0,0-4.44.89c-3.53,1-4.55,2.15-6.22,1.78A5.59,5.59,0,0,1,17.44,46C15.59,41,21,32.6,28.1,30.92a11.52,11.52,0,0,1,5.33,0C41.33,32.89,46.61,43.23,44.09,47.8Zm6.65-17.22c-1.59,3.75-5,5.87-7.69,4.74s-3.52-5.08-1.93-8.83,5-5.87,7.69-4.74S52.33,26.83,50.74,30.58Z"/></g></g></svg>