<svg xmlns="http://www.w3.org/2000/svg" viewBox="0 0 60.59 60.59"><defs><style>.cls-1{fill:#c800b3;stroke:#fff;stroke-miterlimit:10;stroke-width:2px;}.cls-2{fill:#fefefe;}</style></defs><title>acessibilidade</title><g id="Camada_2" data-name="Camada 2"><g id="Camada_2-2" data-name="Camada 2"><circle class="cls-1" cx="30.29" cy="30.29" r="29.29"/><path class="cls-2" d="M15,17.7c1.24.22,2.81.51,4.39.77,1.93.31,3.87.6,5.82.82,1.5.17,3,.21,4.51.29A35.74,35.74,0,0,0,34,19.39q2.64-.19,5.25-.62c2-.33,4-.69,6-1a1.94,1.94,0,0,1,2.07.51,1.46,1.46,0,0,1-.07,2.13,5.15,5.15,0,0,1-2.79,1.24,36.94,36.94,0,0,0-5.17,1.08,7.23,7.23,0,0,0-3.14,2.08,1.57,1.57,0,0,0-.33.81,21.6,21.6,0,0,0-.17,6,79.37,79.37,0,0,0,1.57,9.61c.48,2.31,1,4.61,1.47,6.92a15.7,15.7,0,0,1,.45,2.75,2,2,0,0,1-1.54,2.07,2.14,2.14,0,0,1-2.35-1.42c-.57-1.86-.86-3.78-1.26-5.68a51.63,51.63,0,0,0-2.27-8.74,5.2,5.2,0,0,0-.88-1.41.54.54,0,0,0-.9,0A5.53,5.53,0,0,0,28.7,38a66,66,0,0,0-1.93,7.91c-.37,1.76-.68,3.54-1.13,5.29a2.22,2.22,0,0,1-2.54,1.72,2.13,2.13,0,0,1-1.43-2.6c.8-3.88,1.66-7.75,2.41-11.63a63.14,63.14,0,0,0,1-6.81,45.58,45.58,0,0,0,.1-4.69,4.46,4.46,0,0,0-2.59-3.86A12.81,12.81,0,0,0,18.28,22a21.92,21.92,0,0,1-3.38-.67,4.92,4.92,0,0,1-1.22-.61,1.61,1.61,0,0,1-.84-1.81C13.1,18.14,13.74,17.69,15,17.7Z"/><path class="cls-2" d="M35.75,12.72a5.07,5.07,0,1,1-10.14-.07,5.07,5.07,0,0,1,10.14.07Z"/></g></g></svg>