<svg xmlns="http://www.w3.org/2000/svg" viewBox="0 0 60.59 60.59"><defs><style>.cls-1{fill:#37807d;stroke:#fff;stroke-miterlimit:10;stroke-width:2px;}.cls-2{fill:#fefefe;}</style></defs><title>config</title><g id="Camada_2" data-name="Camada 2"><g id="Camada_1-2" data-name="Camada 1"><circle class="cls-1" cx="30.29" cy="30.29" r="29.29"/><path class="cls-2" d="M50.32,28.11a.42.42,0,0,0-.3-.46c-1.49-.61-3-1.27-4.45-1.85A2.18,2.18,0,0,1,44,24.3l0,0a.66.66,0,0,1,0-.76c.74-1.74,1.47-3.49,2.21-5.23A.43.43,0,0,0,46,17.7q-1.58-1.55-3.14-3.14a.41.41,0,0,0-.54-.1c-1.59.68-3.19,1.31-4.76,2a1.75,1.75,0,0,1-1.78,0,1.48,1.48,0,0,1-.71-.76c-.7-1.7-1.42-3.4-2.13-5.1a.44.44,0,0,0-.49-.33q-2.16,0-4.32,0a.47.47,0,0,0-.51.35c-.62,1.51-1.28,3-1.88,4.52-.26.66-.54,1.26-1.32,1.42a.72.72,0,0,0-.24.13.54.54,0,0,1-.58,0L18.3,14.49a.46.46,0,0,0-.6.11q-1.52,1.56-3.08,3.08a.48.48,0,0,0-.13.63c.65,1.5,1.23,3,1.92,4.5a1.94,1.94,0,0,1,0,2.1,1.22,1.22,0,0,1-.56.54c-1.74.71-3.47,1.46-5.21,2.17a.47.47,0,0,0-.35.52q0,2.14,0,4.28a.49.49,0,0,0,.36.55c1.48.6,2.92,1.28,4.42,1.82a2.45,2.45,0,0,1,1.68,1.65.67.67,0,0,1,0,.51c-.74,1.76-1.47,3.52-2.22,5.27a.53.53,0,0,0,.13.7q1.53,1.49,3,3a.5.5,0,0,0,.67.14c1.71-.74,3.44-1.45,5.16-2.18l.42-.17c.32.15.64.32,1,.45a1,1,0,0,1,.59.61c.71,1.73,1.44,3.44,2.15,5.17a.47.47,0,0,0,.52.33c1.41,0,2.83,0,4.24,0a.54.54,0,0,0,.59-.41c.6-1.47,1.27-2.92,1.83-4.41a2.29,2.29,0,0,1,1.49-1.58,1,1,0,0,1,.8,0l5.2,2.2a.43.43,0,0,0,.57-.1q1.55-1.59,3.14-3.14a.41.41,0,0,0,.11-.54c-.67-1.56-1.28-3.14-2-4.68a1.83,1.83,0,0,1,0-1.92,1.41,1.41,0,0,1,.68-.63L50,33a.45.45,0,0,0,.33-.49C50.31,31,50.31,29.56,50.32,28.11Zm-20,9.61a7.47,7.47,0,1,1,7.48-7.44A7.44,7.44,0,0,1,30.28,37.72Z"/></g></g></svg>