<svg xmlns="http://www.w3.org/2000/svg" viewBox="0 0 62.4 62.4"><defs><style>.cls-1{fill:#ff713a;stroke:#fff;stroke-miterlimit:10;stroke-width:2px;}.cls-2{fill:#fefefe;}.cls-3{fill:#fefdfd;}</style></defs><title>Ativo 51</title><g id="Camada_2" data-name="Camada 2"><g id="Camada_2-2" data-name="Camada 2"><circle class="cls-1" cx="31.2" cy="31.2" r="30.2"/><path class="cls-2" d="M27,25.6c-.4-.31-.51,0-.58.3q-.72,3.28-1.44,6.56a.68.68,0,0,0,.08.58c.08.11.13.24.22.34,3.25,4,4.42,8.79,5.61,13.6a2.21,2.21,0,1,1-4.25,1.16c-.45-1.6-.86-3.21-1.31-4.81a16.41,16.41,0,0,0-.92-3C23.81,39,22.93,37.84,22,36.39a16.55,16.55,0,0,0-.21,2.05,10.45,10.45,0,0,1-1,4.33c-.75,1.82-1.42,3.67-2.15,5.5a2.23,2.23,0,0,1-3,1.54,2.26,2.26,0,0,1-1.12-3.16c.64-1.68,1.22-3.39,2-5,1.26-2.77.85-5.74,1.16-8.62-1.45-2.86.4-5.47.61-8.2,0-.29.23-.57,0-1a27.63,27.63,0,0,0-3.77,3.85,7.73,7.73,0,0,1-.6.69,1.71,1.71,0,0,1-2.32.07,1.64,1.64,0,0,1-.32-2.21,26,26,0,0,1,5.48-5.56c.95-.08,1.51-1,2.44-1.12a4.53,4.53,0,0,0,2-.82c.82-.61,1.81-.29,2.67-.11a6.42,6.42,0,0,1,2.29,1A1.9,1.9,0,0,1,26.87,22c-.32.94-1,1-1.88,1-1.4-.08-1.66-.36-1.11-1.63-.37.54-.62.9-.4,1.33s.65.24,1,.32a7.74,7.74,0,0,0,3,.17,2.51,2.51,0,0,1,2.28,1.11,4.65,4.65,0,0,0,1.55,1.42,1.63,1.63,0,0,1,.87.95.72.72,0,0,0,.67.53,4.51,4.51,0,0,1,1.67.94A1.48,1.48,0,0,1,34.85,30a1.35,1.35,0,0,1-1.79.43,10.59,10.59,0,0,1-3.62-3A6,6,0,0,0,27,25.6Z"/><path class="cls-2" d="M40.06,46.32l-1.33,2.52c-.26.48-.63.74-1.16.45s-.46-.71-.28-1.15a3,3,0,0,1,.37-.72c1.16-1.46,1-3.18,1-4.87a1,1,0,0,0-.49-.83c-.39-.32-.81-.63-1.16-1a.73.73,0,0,1,0-1,.76.76,0,0,1,.92-.21.57.57,0,0,1,.26.16c1.06,1.31,2.53,1.39,4,1.16,2.32-.36,4,.9,5.82,1.94.38.22.37.52.36.86,0,1.56,0,3.12,0,4.69,0,.57-.13,1.07-.78,1.09s-.82-.46-.85-1c0-.8.37-1.88-.17-2.34s-1.69-.13-2.56-.17c-.7,0-1.4,0-2.26,0,.44.78.79,1.42,1.16,2.05s.5,1-.15,1.4-1-.12-1.27-.62Z"/><path class="cls-2" d="M24.38,18a4.71,4.71,0,0,1-2.83-4.33,4.46,4.46,0,1,1,3.69,4.47l-.9-.18Z"/><path class="cls-2" d="M27,25.6a2.56,2.56,0,0,1,2.1.85c.24.23.39.56.82.49.14,0,.33.11.26.22-.71,1,.46,1,.78,1.33.63.66,1.18,1.5,2.22,1.66.54.09,1.1.17,1.3-.41s.34-1.22-.46-1.55c-.55-.22-1-.75-1.68-.58-.41.1-.65-.17-.63-.59a1,1,0,0,0-.61-1,4,4,0,0,1-1.84-1.67c-.44-.85-2.22-1-3-.41-.41.33-.71.43-.9-.17s-.67-.43-1.1-.42-1.23,0-1.39-.55a1.75,1.75,0,0,1,.69-1.61c.17-.17.42-.29.64-.1s0,.4-.15.53-.36.33-.24.6.38.23.62.2a2.83,2.83,0,0,1,.5,0c1.28.09,1.46,0,1.61-1.2.12-.94-.27-1.32-1.3-1.63A15.11,15.11,0,0,0,22.92,19c-.53-.07-1.1-.2-1.44.19a2.31,2.31,0,0,1-1.94.84,1.94,1.94,0,0,0-1.54.66c-.33.39-.76.11-1.15.05A10.1,10.1,0,0,1,24.38,18l0,0a14.55,14.55,0,0,1,4.43,4.35,22.71,22.71,0,0,0,5.55,5.18,1.89,1.89,0,0,1,1.08,2.1c-.12.52.25.73.52,1l4.36,4.55a.62.62,0,0,1-.6.61c-1.44-1.48-2.89-3-4.32-4.46-.36-.38-.67-.71-1.29-.45a1.28,1.28,0,0,1-1.18-.15A22.37,22.37,0,0,1,27,25.6Z"/><path class="cls-3" d="M50.63,42l-.85-.18c-.19,0-.5-.19-.56-.12-.8.93-1.45.19-2.09-.19s-1.81-.6-1.94-1.29.73-1.29,1.15-1.94a8.27,8.27,0,0,0,1.08-2.07c.11-.38.3-.73.77-.65a.81.81,0,0,1,.67.9c0,1.51,1.13,2.15,2.1,2.94a3.93,3.93,0,0,0,.45.23c.51.31,1.16.54,1,1.35C52.22,41.62,51.6,42,50.63,42Z"/><path class="cls-2" d="M39.69,35.8a.65.65,0,0,1,.6-.61c1.41,1.36,2.82,2.72,4.24,4.07.26.25.26.4,0,.65s-.51.33-.83,0A50.24,50.24,0,0,1,39.69,35.8Z"/></g></g></svg>