<svg xmlns="http://www.w3.org/2000/svg" viewBox="0 0 62.4 62.4"><defs><style>.cls-1{fill:#99b232;stroke:#fff;stroke-miterlimit:10;stroke-width:2px;}.cls-2{fill:#fff;}</style></defs><title>instituicoes_1</title><g id="Camada_2" data-name="Camada 2"><g id="Camada_1-2" data-name="Camada 1"><circle class="cls-1" cx="31.2" cy="31.2" r="30.2"/><path class="cls-2" d="M10.11,18.26a2.86,2.86,0,0,1,1.11-1.53,2.33,2.33,0,0,1,3.59,2c.06,3.11,0,6.22,0,9.33,0,.2-.09.27-.25.3a3.12,3.12,0,0,0-1.34,5.21c1.4,1.47,2.83,2.92,4.24,4.38.16.17.24.13.39,0,.41-.4.41-.39,0-.79-1.33-1.37-2.67-2.73-4-4.1A2.32,2.32,0,0,1,17,29.57c.15.12.28.27.42.4l9.27,9.5a.8.8,0,0,1,.25.62q0,6.45,0,12.9c0,.32-.08.43-.41.43q-3.67,0-7.34,0c-.29,0-.33-.11-.33-.36,0-1.73,0-3.46,0-5.18a1,1,0,0,0-.22-.64L11,37.2a5.18,5.18,0,0,1-.89-1.52Z"/><path class="cls-2" d="M52.61,27c0,2.63,0,5.25,0,7.88a3.1,3.1,0,0,1-.67,2c-2.62,3.44-5.22,6.9-7.83,10.34a1,1,0,0,0-.22.68c0,1.71,0,3.43,0,5.14,0,.3-.09.36-.37.36q-3.65,0-7.3,0c-.31,0-.43-.07-.43-.42q0-6.47,0-12.94a.71.71,0,0,1,.22-.55l9.47-9.71a2.26,2.26,0,0,1,2.38-.68,2.18,2.18,0,0,1,1.61,1.68A2.31,2.31,0,0,1,48.83,33l-1.56,1.61c-.87.89-1.73,1.79-2.62,2.66-.22.22-.15.34,0,.47s.23.5.56.15c1.39-1.45,2.8-2.87,4.19-4.32a3.16,3.16,0,0,0-.61-5,1.42,1.42,0,0,0-.45-.2c-.43-.06-.51-.29-.51-.7,0-2.93,0-5.86,0-8.79a2.38,2.38,0,0,1,1.64-2.46,2.34,2.34,0,0,1,3.05,2,5.15,5.15,0,0,1,0,.54Q52.61,23,52.61,27Z"/><path class="cls-2" d="M19.69,20.07c0-.12.07-.24.09-.35a3.35,3.35,0,0,1,.66-1.49,1.86,1.86,0,0,1,1.38-.68,3,3,0,0,1,2.49,1.14,5.81,5.81,0,0,1,1.39,3A4.32,4.32,0,0,1,25.54,24a2,2,0,0,1-1.6,1.42,2.78,2.78,0,0,1-2.24-.59A4.59,4.59,0,0,1,20.36,23a8.88,8.88,0,0,1-.6-1.94,1.68,1.68,0,0,0-.07-.2Z"/><path class="cls-2" d="M35.28,33.66a3.57,3.57,0,0,1-1.94-.46A5.16,5.16,0,0,0,32,32.73a4.29,4.29,0,0,0-1.82.13l-1.84.54a5.7,5.7,0,0,1-2.22.26A4.51,4.51,0,0,1,24.07,33a1.6,1.6,0,0,1-.72-1.23,3.87,3.87,0,0,1,.35-1.94,15.25,15.25,0,0,1,3.07-4.73,12.17,12.17,0,0,1,2.46-2,3.51,3.51,0,0,1,1.92-.55,3.86,3.86,0,0,1,2,.67,8.78,8.78,0,0,1,2,1.92,19.27,19.27,0,0,1,1.89,2.66,8.23,8.23,0,0,1,1,2.67,4.45,4.45,0,0,1,0,1.07,1.79,1.79,0,0,1-.85,1.32,6.82,6.82,0,0,1-1.51.76A1.41,1.41,0,0,1,35.28,33.66Z"/><path class="cls-2" d="M32.16,16.74a7.39,7.39,0,0,1,.72-3,6.17,6.17,0,0,1,1.28-1.85,2.46,2.46,0,0,1,1.71-.73,2,2,0,0,1,1.92,1.16,4.42,4.42,0,0,1,.45,2.41,7.34,7.34,0,0,1-1.11,3.52A3.61,3.61,0,0,1,35,19.94,1.9,1.9,0,0,1,32.73,19,4.25,4.25,0,0,1,32.16,16.74Z"/><path class="cls-2" d="M30.85,16.16a5.24,5.24,0,0,1-.45,2.2,2.27,2.27,0,0,1-1.49,1.38,2.16,2.16,0,0,1-2.14-.61,5.27,5.27,0,0,1-1.21-1.93,7.39,7.39,0,0,1-.51-3,4.17,4.17,0,0,1,.84-2.54,2.75,2.75,0,0,1,1.55-.95h.06a3.33,3.33,0,0,1,1.32.44A4.37,4.37,0,0,1,30,12.61a7.49,7.49,0,0,1,.83,2.81C30.82,15.67,30.83,15.92,30.85,16.16Z"/><path class="cls-2" d="M42.68,22a5.83,5.83,0,0,1-2.33,4.46,2.43,2.43,0,0,1-1.82.5,2.13,2.13,0,0,1-1.72-1.33,3.66,3.66,0,0,1-.25-2.06A6,6,0,0,1,38.34,20a3,3,0,0,1,1.72-.88,2.09,2.09,0,0,1,2.05.88,2.72,2.72,0,0,1,.54,1.65c0,.11,0,.21,0,.32Z"/></g></g></svg>