<svg xmlns="http://www.w3.org/2000/svg" viewBox="0 0 72.96 73.08"><defs><style>.cls-1{fill:#f38722;}.cls-2{fill:#fff;}</style></defs><title>Asset 127</title><g id="Layer_2" data-name="Layer 2"><g id="Camada_1" data-name="Camada 1"><path d="M47,73.08a25.95,25.95,0,1,1,16-5.54A26,26,0,0,1,47,73.08Z"/><ellipse cx="46.85" cy="16.43" rx="16.25" ry="16.43"/><ellipse cx="22.75" cy="24.95" rx="16.25" ry="16.43"/><ellipse cx="16.25" cy="49.17" rx="16.25" ry="16.43"/><ellipse class="cls-1" cx="47.05" cy="47.15" rx="17.27" ry="17.25" transform="translate(-19.56 47.15) rotate(-45.06)"/><ellipse class="cls-1" cx="46.85" cy="16.43" rx="8.9" ry="9.07"/><ellipse class="cls-1" cx="22.75" cy="24.95" rx="8.9" ry="9.07"/><ellipse class="cls-1" cx="16.25" cy="49.17" rx="8.9" ry="9.07"/><path class="cls-2" d="M49.87,35.07a13.37,13.37,0,0,1,5.18,1.77A11,11,0,0,1,58.41,40a10.45,10.45,0,0,1,1.64,4,12.54,12.54,0,0,1,0,4.32,12.25,12.25,0,0,1-1.51,4.1,11.44,11.44,0,0,1-3,3.35,12.08,12.08,0,0,1-4.3,2,14.12,14.12,0,0,1-5.55.21l-.19,0-.37,2.54a1.18,1.18,0,0,1-.54.84,2.9,2.9,0,0,1-1.11.43,4.13,4.13,0,0,1-1.36,0,4.54,4.54,0,0,1-1.3-.36,2.59,2.59,0,0,1-1-.69,1.23,1.23,0,0,1-.29-1L43.06,36a1.5,1.5,0,0,1,1.1-1.18,4.75,4.75,0,0,1,2-.2v0Zm-3.46,18.1a9.33,9.33,0,0,0,4.39-.28A7,7,0,0,0,53.74,51a5.43,5.43,0,0,0,1.37-2.72,5.06,5.06,0,0,0-.34-3,6.21,6.21,0,0,0-2.19-2.55,9.38,9.38,0,0,0-4.15-1.5,2.64,2.64,0,0,0-.46,0L46.26,53.15Z"/></g></g></svg>