<svg xmlns="http://www.w3.org/2000/svg" viewBox="0 0 72.04 71.82"><defs><style>.cls-1{fill:#fff;}.cls-2{fill:#f38722;}</style></defs><title>Asset 128</title><g id="Layer_2" data-name="Layer 2"><g id="Camada_1" data-name="Camada 1"><path class="cls-1" d="M25.6,0A25.59,25.59,0,0,1,41.38,45.73a25.77,25.77,0,0,1-15.8,5.46A25.58,25.58,0,0,1,9.8,5.47,25.67,25.67,0,0,1,25.6,0Z"/><ellipse class="cls-1" cx="25.39" cy="55.77" rx="15.65" ry="16.05"/><ellipse class="cls-1" cx="49.58" cy="47.51" rx="16.04" ry="16.22"/><ellipse class="cls-1" cx="55.99" cy="23.6" rx="16.04" ry="16.22"/><ellipse class="cls-2" cx="25.59" cy="25.6" rx="17.06" ry="17.03" transform="translate(-10.61 25.63) rotate(-45.06)"/><ellipse class="cls-2" cx="25.78" cy="55.93" rx="8.79" ry="8.96"/><ellipse class="cls-2" cx="49.58" cy="47.51" rx="8.79" ry="8.96"/><ellipse class="cls-2" cx="55.99" cy="23.6" rx="8.79" ry="8.96"/><path class="cls-1" d="M17.77,38a2.63,2.63,0,0,0,1,.69A4.54,4.54,0,0,0,20,39a4.07,4.07,0,0,0,1.35,0,2.9,2.9,0,0,0,1.11-.43,1.19,1.19,0,0,0,.54-.83l.37-2.54.18,0A13.82,13.82,0,0,0,29.11,35a11.85,11.85,0,0,0,4.29-2,11.48,11.48,0,0,0,3-3.34,12.07,12.07,0,0,0,1.51-4.08,12.43,12.43,0,0,0,0-4.3,10.43,10.43,0,0,0-1.62-4,11,11,0,0,0-3.35-3.15,13.32,13.32,0,0,0-5.17-1.75L24,11.82v0a4.7,4.7,0,0,0-2,.2,1.49,1.49,0,0,0-1.1,1.17L17.48,36.92A1.22,1.22,0,0,0,17.77,38Zm8-19.41a2.48,2.48,0,0,1,.45,0,9.5,9.5,0,0,1,4.14,1.49,6.3,6.3,0,0,1,2.18,2.54,5,5,0,0,1,.33,2.94,5.26,5.26,0,0,1-1.36,2.71,6.92,6.92,0,0,1-2.93,1.84,9.12,9.12,0,0,1-4.37.28l-.15,0Z"/></g></g></svg>