<svg xmlns="http://www.w3.org/2000/svg" viewBox="0 0 60.59 60.59"><defs><style>.cls-1{fill:#7b3347;stroke:#fff;stroke-miterlimit:10;stroke-width:2px;}.cls-2{fill:#fff;}</style></defs><title>Asset 136</title><g id="Layer_2" data-name="Layer 2"><g id="Camada_2" data-name="Camada 2"><path class="cls-1" d="M30.29,1A29.3,29.3,0,1,1,1,30.29,29.29,29.29,0,0,1,30.29,1"/></g><g id="Camada_1" data-name="Camada 1"><path class="cls-2" d="M48.36,40.66a32.28,32.28,0,0,1-1.14,3,6.9,6.9,0,0,1-6.52,4.2c-3.46,0-6.93,0-10.4,0-2.14,0-2.74-1.11-1.63-3,.2-.33.43-.76.74-.88,2.19-.81,2.26-2.33,1.35-4.36L26.4,46.34c-.9,1.37-3.93,2.17-5.33,1.38-.86-.48-.65-1.12-.22-1.81,1.3-2,2.5-4.13,3.86-6.12a6.57,6.57,0,0,0,1.19-4.21c-.12-2.08,0-4.18,0-6.27,0-.49-.07-.94-.54-1.15s-.67.31-.94.54a8.51,8.51,0,0,1-8,1.93c-1.25-.3-1.65-.87-1-2.08.38-.75.6-1.59,1-2.34a3.18,3.18,0,0,0,.29-3.13,2.72,2.72,0,0,1,0-2.3c.37-.8-.08-1.18-.44-1.72-.5-.77-1.74-1.24-1.32-2.42s1.75-.42,2.67-.86c-.37-.7-.7-1.4-1.1-2.06a1.09,1.09,0,0,1,1.36-1.62c4.94,2.47,10.19,4.29,14.91,7.22a4.88,4.88,0,0,1,1.75,1.55c1.51,2.74,4.06,4,6.68,5.46,4,2.22,6.11,6,7.24,10.4Z"/></g></g></svg>