<svg xmlns="http://www.w3.org/2000/svg" viewBox="0 0 62 62"><defs><style>.cls-1{fill:#1472a1;stroke:#fff;stroke-miterlimit:10;stroke-width:2px;}.cls-2{fill:#fefefe;}</style></defs><title>avatar</title><g id="Layer_2" data-name="Layer 2"><g id="Camada_2" data-name="Camada 2"><rect class="cls-1" x="1" y="1" width="60" height="60"/><path class="cls-2" d="M51.87,8.79q-20.86,0-41.73,0c-.37,0-.49.08-.49.48q0,21.72,0,43.45c0,.38.09.49.48.49H51.78l.55,0V9.8c0-.19,0-.37,0-.55C52.38,8.9,52.25,8.79,51.87,8.79ZM49.64,40.66c0,.39-.12.48-.5.48H12.87c-.41,0-.52-.11-.52-.52q0-14.31,0-28.63c0-.43.13-.49.52-.49H49.14c.37,0,.5.07.5.47Q49.63,26.32,49.64,40.66Z"/><path class="cls-2" d="M48.52,38.94H18.33l1-.69,16-11.09a.52.52,0,0,1,.8.06q4,3.78,8,7.52C45.5,36.12,47,37.49,48.52,38.94Z"/><path class="cls-2" d="M29.1,30.79l-2.41,1.68-9,6.26A1.1,1.1,0,0,1,17,39a9.93,9.93,0,0,0-1.22,0c-.36,0-.46-.13-.44-.46s0-.59,0-.89V22.72a.85.85,0,0,1,.07-.53Z"/><path class="cls-2" d="M26,20.55a3.38,3.38,0,1,1,3.39,3.38A3.38,3.38,0,0,1,26,20.55Z"/></g></g></svg>