<svg xmlns="http://www.w3.org/2000/svg" viewBox="0 0 60.59 60.59"><defs><style>.cls-1{fill:#ed0031;stroke:#fff;stroke-miterlimit:10;stroke-width:2px;}.cls-2{fill:#fff;}</style></defs><title>Ativo 114</title><g id="Camada_2" data-name="Camada 2"><g id="Camada_2-2" data-name="Camada 2"><path class="cls-1" d="M30.29,1A29.29,29.29,0,1,1,1,30.29,29.29,29.29,0,0,1,30.29,1"/><path class="cls-2" d="M46.42,41.23a1.11,1.11,0,0,1,.27,1.24,3,3,0,0,1-1.07,1.24,9,9,0,0,1-1.95,1.05,10.75,10.75,0,0,1-2.28.65,7.18,7.18,0,0,1-2.18,0,2.72,2.72,0,0,1-1.64-.78q-.87-.92-2.92-3.19t-4.67-5q-2.55,2.73-4.56,5l-2.89,3.23a3.12,3.12,0,0,1-2.62.92A10.23,10.23,0,0,1,16.45,45a6.89,6.89,0,0,1-2.58-1.62,1.32,1.32,0,0,1-.13-2l1.54-1.72q1-1.13,2.38-2.65l3-3.28,3.29-3.61q-1.81-1.93-3.53-3.72l-3.12-3.28L14.87,20.6l-1.41-1.47a1.3,1.3,0,0,1,.13-1.93,6.94,6.94,0,0,1,2.62-1.66,10.33,10.33,0,0,1,3.52-.69,3.51,3.51,0,0,1,2.79,1c.09.11.35.39.77.84l1.64,1.72,2.28,2.39L30,23.67l4.67-5,2.65-2.86A2.83,2.83,0,0,1,39,14.91a8,8,0,0,1,2.25-.06,9.54,9.54,0,0,1,2.35.57,8.28,8.28,0,0,1,2,1,2.71,2.71,0,0,1,1,1.3,1.35,1.35,0,0,1-.37,1.39l-1.07,1.18q-.87,1-2.28,2.46l-3.19,3.36Q37.89,28,36,30l3.32,3.57,3,3.26,2.45,2.65Z"/></g></g></svg>