<svg xmlns="http://www.w3.org/2000/svg" viewBox="0 0 60.59 60.59"><defs><style>.cls-1{fill:#0071bc;stroke:#fff;stroke-miterlimit:10;stroke-width:2px;}.cls-2{fill:#fff;}</style></defs><title>Asset 126</title><g id="Layer_2" data-name="Layer 2"><g id="Camada_2" data-name="Camada 2"><path class="cls-1" d="M30.29,1A29.3,29.3,0,1,1,1,30.29,29.29,29.29,0,0,1,30.29,1"/><path class="cls-2" d="M27.86,9.07c-4.28,4.08-8.22,7.87-12.2,11.62-.6.57-.39.86.1,1.31,4,3.55,7.88,7.12,11.94,10.81a23.65,23.65,0,0,0,.15-4.33c0-1.83.11-1.92,1.87-1.5,3.92.94,6.4,5.24,5.52,9.58C34.48,40.3,26.68,42,26.68,42s0-.88,1.85,9.56c7.69-.06,15.63-5.44,16.21-14.13C47.27,27,40.77,19,32.2,16.76a18.75,18.75,0,0,0-3.23-.6c-.94-.08-1.16-.48-1.13-1.36C27.9,13,27.86,11.24,27.86,9.07Z"/></g></g></svg>