<svg xmlns="http://www.w3.org/2000/svg" viewBox="0 0 60.59 60.59"><defs><style>.cls-1{fill:#0071bc;stroke:#fff;stroke-miterlimit:10;stroke-width:2px;}.cls-2{fill:#fff;}</style></defs><title>Asset 125</title><g id="Layer_2" data-name="Layer 2"><g id="Camada_2" data-name="Camada 2"><path class="cls-1" d="M30.29,1A29.3,29.3,0,1,1,1,30.29,29.29,29.29,0,0,1,30.29,1"/><path class="cls-2" d="M33,9.07c4.72,4.08,9.08,7.87,13.48,11.62.67.57.43.86-.11,1.31-4.36,3.55-8.71,7.12-13.2,10.81A21.28,21.28,0,0,1,33,28.48c0-1.83-.13-1.92-2.08-1.5a8,8,0,0,0-6.09,9.58C25.66,40.3,34.29,42,34.29,42s0-.88-2,9.56c-8.5-.06-17.28-5.44-17.92-14.13C11.52,27,18.71,19,28.18,16.76a23.07,23.07,0,0,1,3.58-.6c1-.08,1.28-.48,1.25-1.36C32.94,13,33,11.24,33,9.07Z"/></g></g></svg>