<svg xmlns="http://www.w3.org/2000/svg" viewBox="0 0 74.66 74.66"><defs><style>.cls-1{fill:#1472a1;}.cls-1,.cls-2{stroke:#fff;stroke-miterlimit:10;stroke-width:2px;}.cls-2{fill:#fff;}</style></defs><title>Ativo 116</title><g id="Camada_2" data-name="Camada 2"><g id="Camada_2-2" data-name="Camada 2"><circle class="cls-1" cx="37.33" cy="37.33" r="36.33"/><path class="cls-2" d="M37.3,58.9H12.86c-.28,0-.33-.08-.32-.34,0-.75,0-1.5,0-2.25,0-.19.05-.23.23-.22h1.87c.19,0,.25,0,.25-.24,0-.79,0-1.57,0-2.36,0-.17,0-.21.22-.21h2c.19,0,.23-.05.22-.23,0-.79,0-1.57,0-2.36,0-.17,0-.23.21-.22a3.88,3.88,0,0,0,.41,0H57.08c.24,0,.32,0,.31.3,0,.77,0,1.54,0,2.31,0,.16,0,.2.2.2h2c.18,0,.21.05.21.22,0,.79,0,1.57,0,2.36,0,.18,0,.23.22.23h1.92c.16,0,.2,0,.2.2,0,.79,0,1.57,0,2.36,0,.2,0,.25-.25.25H37.3Z"/><path class="cls-2" d="M37.3,23.64H15.48c-.24,0-.31-.06-.3-.29,0-.41,0-.81,0-1.22a.28.28,0,0,1,.2-.31l8-3.75,13.82-6.53a.39.39,0,0,1,.38,0L56.9,20.71l2.38,1.12a.27.27,0,0,1,.19.29q0,.66,0,1.32c0,.17-.06.21-.22.21h-22Z"/><path class="cls-2" d="M25.44,38.88q.15,5.32.31,10.64c0,.17,0,.22-.21.22H20.75c-.2,0-.21-.08-.21-.24q.14-5.35.27-10.7t.26-10.44c0-.36,0-.36.38-.36h3.47c.16,0,.22,0,.22.21Q25.29,33.54,25.44,38.88Z"/><path class="cls-2" d="M49.18,38.89q.13-5.31.26-10.62c0-.24.08-.28.29-.27q1.78,0,3.55,0c.18,0,.23,0,.23.23q.18,6.54.37,13.08.12,4.08.25,8.16c0,.23,0,.28-.28.28H49.13c-.15,0-.23,0-.22-.21q.14-5.32.27-10.65Z"/><path class="cls-2" d="M34.9,38.88q.15,5.26.31,10.52c0,.26,0,.34-.32.34-1.55,0-3.09,0-4.64,0-.2,0-.25,0-.25-.25q.23-8.89.44-17.77c0-1.17.07-2.35.09-3.52,0-.15,0-.18.19-.18H34.4c.14,0,.19,0,.19.18q.09,3.41.2,6.81.06,1.94.11,3.89Z"/><path class="cls-2" d="M39.72,40.09c.12-4.78.21-8.34.3-11.9,0-.17.06-.19.21-.19h3.63c.16,0,.22,0,.22.21q.15,5.53.31,11.06.15,5.09.3,10.18c0,.23,0,.3-.29.29q-2.32,0-4.64,0c-.22,0-.28,0-.28-.27C39.58,45.93,39.67,42.4,39.72,40.09Z"/><path class="cls-2" d="M37.33,24.42H54.9c.27,0,.32.07.32.33q0,1.1,0,2.2c0,.23-.06.28-.28.28H19.73c-.22,0-.29,0-.29-.28q0-1.13,0-2.25c0-.24.07-.28.29-.28Z"/></g></g></svg>