<svg xmlns="http://www.w3.org/2000/svg" viewBox="0 0 60.59 60.59"><defs><style>.cls-1{fill:#078b4f;stroke:#fff;stroke-miterlimit:10;stroke-width:2px;}.cls-2{fill:#fff;}</style></defs><title>Ativo 111</title><g id="Camada_2" data-name="Camada 2"><g id="Camada_2-2" data-name="Camada 2"><path class="cls-1" d="M30.29,1A29.29,29.29,0,1,1,1,30.29,29.29,29.29,0,0,1,30.29,1"/><path class="cls-2" d="M18.45,15.93a6.68,6.68,0,0,1,4,1.25,10,10,0,0,1,2.86,3.29A16.34,16.34,0,0,1,27,25.12a23.55,23.55,0,0,1,.48,5.32,23.43,23.43,0,0,1-.71,5.3,17.37,17.37,0,0,1-1.87,4.62,10.16,10.16,0,0,1-3,3.28,7.13,7.13,0,0,1-4.21,1.19,7.42,7.42,0,0,1-4.35-1.19,9.68,9.68,0,0,1-3-3.28,16,16,0,0,1-1.74-4.62,21.94,21.94,0,0,1-.48-5.3,23,23,0,0,1,.77-5.32,16.67,16.67,0,0,1,2-4.64,10.71,10.71,0,0,1,3.21-3.29A7.83,7.83,0,0,1,18.45,15.93Zm-.73,23.54a3.18,3.18,0,0,0,2.61-1.21,8.33,8.33,0,0,0,1.6-3.12,15.58,15.58,0,0,0,.58-4.07A15.73,15.73,0,0,0,22.09,27a8.13,8.13,0,0,0-1.45-3.12,3,3,0,0,0-2.49-1.25,3.49,3.49,0,0,0-2.72,1.25A8.42,8.42,0,0,0,13.74,27a15,15,0,0,0-.64,4.07,14.66,14.66,0,0,0,.43,4.07,7.86,7.86,0,0,0,1.53,3.12A3.21,3.21,0,0,0,17.72,39.46Z"/><path class="cls-2" d="M48.71,40.66a1.57,1.57,0,0,1,.06,1.67A4.65,4.65,0,0,1,47.48,44a4,4,0,0,1-1.84.87,1.47,1.47,0,0,1-1.57-.61l-.77-1.05-1.64-2.24-2.22-3-2.55-3.47q-.39.44-.73.87t-.7.83V43A1.32,1.32,0,0,1,35,44a2.6,2.6,0,0,1-1.06.62,5.1,5.1,0,0,1-1.37.22,4.22,4.22,0,0,1-1.37-.18,2.89,2.89,0,0,1-1.08-.6,1.32,1.32,0,0,1-.44-1V17.79a1.34,1.34,0,0,1,.44-1,3,3,0,0,1,1.08-.63,4.62,4.62,0,0,1,1.37-.24,4.22,4.22,0,0,1,1.37.18A2.59,2.59,0,0,1,35,16.7a1.46,1.46,0,0,1,.43,1.09V27l2.88-3.49L41,20.31l2.11-2.52,1.2-1.43a1.39,1.39,0,0,1,1-.48,2.7,2.7,0,0,1,1.22.22,5.19,5.19,0,0,1,1.22.73,4,4,0,0,1,.95,1.05,2.79,2.79,0,0,1,.41,1.19,1.5,1.5,0,0,1-.37,1.13q-.15.16-.89,1T46,23.47q-1.1,1.35-2.47,3l-2.8,3.35,2.63,3.55,2.42,3.26q1.1,1.49,1.87,2.56T48.71,40.66Z"/></g></g></svg>