<svg xmlns="http://www.w3.org/2000/svg" viewBox="0 0 74.66 74.66"><defs><style>.cls-1{fill:#078b4f;}.cls-1,.cls-2{stroke:#fff;stroke-miterlimit:10;stroke-width:2px;}.cls-2{fill:#fff;}</style></defs><title>Ativo 115</title><g id="Camada_2" data-name="Camada 2"><g id="Camada_2-2" data-name="Camada 2"><circle class="cls-1" cx="37.33" cy="37.33" r="36.33"/><path class="cls-2" d="M59.9,59.19H15.17c-.33,0-.42-.08-.41-.41.22-8.29,3.45-15,10.21-20l.08-.06c.24-.23.41-.2.67,0a17.6,17.6,0,0,0,23.28,0c.25-.22.39-.18.62,0a23.81,23.81,0,0,1,9.3,13.13,24.9,24.9,0,0,1,.92,5.1c0,.08,0,.18.07.23Z"/><path class="cls-2" d="M37.32,38.76A13.3,13.3,0,1,1,50.63,25.49,13.29,13.29,0,0,1,37.32,38.76Z"/></g></g></svg>