<svg xmlns="http://www.w3.org/2000/svg" viewBox="0 0 60.59 60.59"><defs><style>.cls-1{fill:#ff713a;stroke-width:2px;}.cls-1,.cls-3{stroke:#fff;stroke-miterlimit:10;}.cls-2{fill:#fff;}.cls-3{fill:none;stroke-width:3px;}</style></defs><title>Ativo 113</title><g id="Camada_2" data-name="Camada 2"><g id="Camada_2-2" data-name="Camada 2"><path class="cls-1" d="M30.29,1A29.29,29.29,0,1,1,1,30.29,29.29,29.29,0,0,1,30.29,1"/><path class="cls-2" d="M13.14,27.15l0-2.93a3.21,3.21,0,0,0,.14-.5c.95-8.12,8.09-13.9,15.65-12.64C38.3,12.64,43.44,23.52,39,32.52l-.39.81A5.17,5.17,0,0,1,44,35.27c1.15,1.31,2.36,2.56,3.58,3.79a8.08,8.08,0,0,1,2.5,4v1.69c-.09.28-.18.57-.28.85-1.38,4-5.83,5.27-8.59,2.26-1.61-1.76-3.27-3.47-4.92-5.18a5.68,5.68,0,0,1-1.61-3.82c0-.34,0-.68,0-1.07l-.59.37c-8,5.22-18.38.61-20.58-9.17C13.37,28.4,13.27,27.77,13.14,27.15ZM26.89,16.23c-4.89,0-8.81,4.2-8.81,9.45s4,9.4,8.82,9.4,8.83-4.27,8.82-9.47S31.73,16.23,26.89,16.23Z"/><line class="cls-3" x1="33.04" y1="25.63" x2="20.1" y2="25.71"/><path class="cls-3" d="M27.6,21.17"/><path class="cls-3" d="M27.6,34.17"/></g></g></svg>