<svg xmlns="http://www.w3.org/2000/svg" viewBox="0 0 60.59 60.59"><defs><style>.cls-1{fill:#5d03e5;stroke-width:2px;}.cls-1,.cls-3{stroke:#fff;stroke-miterlimit:10;}.cls-2{fill:#fff;}.cls-3{fill:none;stroke-width:3px;}</style></defs><title>zoomAtivo 112</title><g id="Camada_2" data-name="Camada 2"><g id="Camada_2-2" data-name="Camada 2"><circle class="cls-1" cx="30.29" cy="30.29" r="29.29"/><path class="cls-2" d="M47.11,27.15l0-2.93a3.2,3.2,0,0,1-.14-.5c-1-8.12-8.13-13.9-15.72-12.64-9.42,1.55-14.58,12.44-10.16,21.44l.39.81a5.2,5.2,0,0,0-5.37,1.95c-1.16,1.31-2.37,2.56-3.6,3.79a8.07,8.07,0,0,0-2.51,4v1.69c.09.28.18.57.28.85,1.39,4,5.85,5.27,8.63,2.26,1.62-1.76,3.28-3.47,4.94-5.18a5.67,5.67,0,0,0,1.62-3.82c0-.34,0-.68,0-1.07l.59.37c8.07,5.22,18.47.61,20.67-9.17C46.88,28.4,47,27.77,47.11,27.15ZM33.3,16.23c4.91,0,8.85,4.2,8.85,9.45s-4,9.4-8.86,9.4-8.87-4.27-8.86-9.47S28.44,16.23,33.3,16.23Z"/><line class="cls-3" x1="27.12" y1="25.63" x2="40.12" y2="25.71"/><line class="cls-3" x1="33.59" y1="32.17" x2="33.59" y2="19.17"/></g></g></svg>