<svg xmlns="http://www.w3.org/2000/svg" viewBox="0 0 60.59 60.59"><defs><style>.cls-1{fill:#0f1416;stroke-width:2px;}.cls-1,.cls-2{stroke:#fff;stroke-miterlimit:10;}.cls-2{fill:#fff;}</style></defs><title>Ativo 64</title><g id="Camada_2" data-name="Camada 2"><g id="Camada_1-2" data-name="Camada 1"><circle class="cls-1" cx="30.29" cy="30.29" r="29.29"/><path class="cls-2" d="M35.39,46.89a3,3,0,0,0-.51-.15A2.49,2.49,0,0,1,33.28,45c0-.08,0-.16,0-.24s0-.14,0-.2v-.38c0-.06,0-.13,0-.2a2.48,2.48,0,0,1,1-1.64c.5-.4,1-.84,1.47-1.25L36.94,40l1-.86c.35-.29.68-.61,1.05-.87a.13.13,0,0,0,.06-.19,6.28,6.28,0,0,1-.45-1.6c-.17-.73-.32-1.46-.48-2.2s-.28-1.3-.41-1.94-.23-1-.33-1.51c0-.15-.07-.11-.13,0a10.82,10.82,0,0,1-.88.92,15.49,15.49,0,0,1-3.19,2.39,18.14,18.14,0,0,1-1.89,1,2.09,2.09,0,0,1-.47.13,1.45,1.45,0,0,1-.41,0A1.78,1.78,0,0,1,29,34.28a1.76,1.76,0,0,1-.22-.79,1.92,1.92,0,0,1,.48-1.41,2.57,2.57,0,0,1,.93-.58,9.52,9.52,0,0,0,1.36-.74.14.14,0,0,1,.11-.07.25.25,0,0,0,.19-.11.14.14,0,0,1,.11-.07.93.93,0,0,0,.33-.22.15.15,0,0,1,.11-.07,3.34,3.34,0,0,0,.67-.51.14.14,0,0,1,.11-.08l.11-.11a.14.14,0,0,1,.11-.08l.26-.25a.1.1,0,0,1,.11-.07l.4-.42c0-.07.06-.16.16-.18a2.88,2.88,0,0,0,.44-.48.13.13,0,0,1,.08-.11,9.69,9.69,0,0,0,.93-1.25,17,17,0,0,0,.89-1.49A5.88,5.88,0,0,1,37.8,23.6a8.46,8.46,0,0,1,.88-.68c0-.06.1-.06.15-.07l.81-.36c0-.09.12,0,.18,0l.41-.08a.48.48,0,0,1,.26-.08,4.67,4.67,0,0,1,1.88.15,4.24,4.24,0,0,1,2.15,1.33,3.23,3.23,0,0,1,.7,1.43q1,4.65,2,9.3c.07.33.15.66.21,1a3.4,3.4,0,0,1-.94,3.13,24.76,24.76,0,0,1-2,1.74l-1.61,1.36a.23.23,0,0,0,.14,0h2.66a2.55,2.55,0,0,1,2.37,1.8c0,.12,0,.24.06.36v.78a2.39,2.39,0,0,1-.54,1.27,2.28,2.28,0,0,1-1.72.94l0,0h-.15a.38.38,0,0,0-.2,0H35.84a.38.38,0,0,0-.2,0Z"/><path class="cls-2" d="M11.89,36.46c.11,0,.08-.15.13-.22A.93.93,0,0,1,13.34,36l1.58,1.28a.35.35,0,0,0,.26.06c1.68,0,3.35,0,5,0a1.49,1.49,0,0,1,.76.31c1.09.61,2.16,1.24,3.24,1.86l.37.2s0,.07,0,.1q0,1.34,0,2.67a.23.23,0,0,1,0,.07q0,1.66,0,3.33a.89.89,0,0,1-.7.89A.88.88,0,0,1,22.81,46q0-1.42,0-2.85c0-.14,0-.18-.18-.18H17.32a.32.32,0,0,0,.08.18c.46.8.92,1.6,1.38,2.4a.88.88,0,0,1-.42,1.27.89.89,0,0,1-1.13-.43l-1.48-2.57-.2-.34-.31.59L14,46.32a.89.89,0,1,1-1.58-.8q.67-1.33,1.35-2.65a1.34,1.34,0,0,0,.15-.65c0-1.07,0-2.13,0-3.2a.38.38,0,0,0-.16-.34c-.46-.36-.91-.74-1.37-1.09a1.37,1.37,0,0,1-.53-.68Z"/><path class="cls-2" d="M38.38,13c.25,0,.51.09.76.15a4.77,4.77,0,0,1,3.63,4.92,4.71,4.71,0,0,1-2.6,4l-.13.07a5.12,5.12,0,0,1-1.55.43c-.08,0-.16,0-.24,0h-.48c-.09,0-.19,0-.28,0a5,5,0,0,1-1.28-.3c-.07,0-.11-.1-.19-.08a.36.36,0,0,1-.26-.14l-.62-.38a.34.34,0,0,1-.15-.12l-.11-.11a.13.13,0,0,1-.11-.08,6.31,6.31,0,0,1-.86-1.09,5,5,0,0,1-.57-1.43,6.53,6.53,0,0,1-.09-.69c0-.23,0-.46,0-.68a.13.13,0,0,1,0-.13,4.93,4.93,0,0,1,.42-1.59.27.27,0,0,1,.06-.21,4.74,4.74,0,0,1,2.83-2.36,5,5,0,0,1,1-.18h.22a1.27,1.27,0,0,0,.48,0Z"/><path class="cls-2" d="M35.64,46.89c0-.06.11,0,.17,0h9.72c.06,0,.12,0,.17,0Z"/><path class="cls-2" d="M38.23,13a.67.67,0,0,1-.48,0Z"/><path class="cls-2" d="M29.1,37.46a1.47,1.47,0,0,1-.85,1.08,2.4,2.4,0,0,1-1,.22,3.17,3.17,0,0,1-1.41-.33.36.36,0,0,0-.48,0c-.17.18-.35.34-.51.53a.14.14,0,0,1-.2,0l-1.24-.72L22,37.53l-1-.6c-.07,0-.08-.06,0-.15.53-.76,1-1.53,1.55-2.29a11.17,11.17,0,0,0,.86-1.5,5.57,5.57,0,0,0,.19-.58,1.23,1.23,0,0,1,.39-.66.78.78,0,0,1,1.11.4c0,.1.08.21.12.32s0,.14,0,.2a.55.55,0,0,0,0,.22c0,.08,0,.16,0,.24v.17c0,.06,0,.13,0,.2s0,.31.2.41a3,3,0,0,1,1,1c.13.19.27.36.41.54a2.3,2.3,0,0,0,.86.5,5.41,5.41,0,0,1,1.18.72,1.21,1.21,0,0,1,.35.51A.79.79,0,0,1,29.1,37.46Z"/><path class="cls-2" d="M24.59,42.6q0-1.31,0-2.63c0-.07,0-.15,0-.22s0,.08,0,.13q0,1.3,0,2.59A.16.16,0,0,1,24.59,42.6Z"/><path class="cls-2" d="M33.23,17.44v.7a3,3,0,0,1,0-.67S33.21,17.44,33.23,17.44Z"/><path class="cls-2" d="M35.76,22a.89.89,0,0,1,.26.14C35.87,22.24,35.77,22.21,35.76,22Z"/><path class="cls-2" d="M34.32,28.51c0,.07-.06.16-.16.18S34.18,28.49,34.32,28.51Z"/><path class="cls-2" d="M39.83,22.44a.31.31,0,0,1-.18,0C39.66,22.29,39.75,22.39,39.83,22.44Z"/><path class="cls-2" d="M30.43,35.21h.41A.57.57,0,0,1,30.43,35.21Z"/><path class="cls-2" d="M33.23,17.44l0,0c-.11-.08-.08-.12,0-.15Z"/><path class="cls-2" d="M38.83,22.84a.19.19,0,0,1-.15.07C38.69,22.81,38.71,22.8,38.83,22.84Z"/><path class="cls-2" d="M35,21.54c.08,0,.11.07.15.12S35,21.65,35,21.54Z"/><path class="cls-2" d="M31.95,30.51s0,.08-.11.07S31.86,30.47,31.95,30.51Z"/><path class="cls-2" d="M31.65,30.69s-.05.08-.11.07S31.57,30.65,31.65,30.69Z"/><path class="cls-2" d="M29.1,37.46v-.29A.32.32,0,0,1,29.1,37.46Z"/><path class="cls-2" d="M34.76,21.35c.06,0,.1,0,.11.08S34.77,21.41,34.76,21.35Z"/><path class="cls-2" d="M37.5,22.55a.67.67,0,0,1,.28,0C37.68,22.57,37.58,22.61,37.5,22.55Z"/><path class="cls-2" d="M33.39,29.43c0,.06-.05.08-.11.08S33.28,29.36,33.39,29.43Z"/><path class="cls-2" d="M33.17,29.62s0,.09-.11.08S33.06,29.54,33.17,29.62Z"/><path class="cls-2" d="M32.39,30.21a.11.11,0,0,1-.11.07C32.3,30.23,32.28,30.13,32.39,30.21Z"/><path class="cls-2" d="M34.84,27.92c0,.06,0,.08-.08.11S34.78,27.93,34.84,27.92Z"/><path class="cls-2" d="M33.76,29.11a.11.11,0,0,1-.11.07C33.67,29.06,33.68,29.05,33.76,29.11Z"/><path class="cls-2" d="M25.18,33.13a.47.47,0,0,1,0-.24C25.2,33,25.24,33.05,25.18,33.13Z"/><path class="cls-2" d="M38.25,22.58a.5.5,0,0,1,.24,0C38.42,22.61,38.33,22.57,38.25,22.58Z"/><path class="cls-2" d="M25.21,32.67a.45.45,0,0,1,0-.2C25.23,32.52,25.2,32.6,25.21,32.67Z"/><path class="cls-2" d="M25.14,33.5a.36.36,0,0,1,0-.2C25.17,33.37,25.19,33.44,25.14,33.5Z"/><path class="cls-2" d="M33.23,44a.42.42,0,0,1,0,.2C33.21,44.1,33.18,44,33.23,44Z"/><path class="cls-2" d="M33.21,44.55a.42.42,0,0,1,0,.2C33.18,44.69,33.21,44.61,33.21,44.55Z"/></g></g></svg>