<svg xmlns="http://www.w3.org/2000/svg" viewBox="0 0 60.59 60.59"><defs><style>.cls-1{stroke:#fff;stroke-miterlimit:10;stroke-width:2px;}.cls-2{fill:#fff;}</style></defs><title>Asset 142</title><g id="Layer_2" data-name="Layer 2"><g id="Camada_1" data-name="Camada 1"><path class="cls-1" d="M30.29,1A29.3,29.3,0,1,1,1,30.29,29.29,29.29,0,0,1,30.29,1"/><path class="cls-2" d="M9.29,36.25c.61-1.64.45-3.46.75-5.18.14-.79.17-1.61.24-2.42a2.88,2.88,0,0,1,.79-1.87q3.39-3.78,6.75-7.62a1.75,1.75,0,0,1,2.32-.55c4.77,2.31,9.55,4.59,14.32,6.9a2.66,2.66,0,0,1,1.23,3.26A1.89,1.89,0,0,1,33,30.09c-2.15-1-4.29-2.06-6.42-3.16-.61-.32-.83-.15-1,.59-.4,1.45-.85,2.89-1.3,4.32-.18.55-.06.73.4.7a14.22,14.22,0,0,1,1.46,0c1.19.05,1.95,1,2,2.46q0,3.91,0,7.83a2.25,2.25,0,0,1-1.87,2.48,2.22,2.22,0,0,1-2-2.4c0-1.55,0-3.1,0-4.65,0-.62-.11-.85-.64-.83-1.23,0-2.46,0-3.9,0l2.55,2.94a3,3,0,0,1,.86,3.2,2.17,2.17,0,0,1-2.33,1.73c-2.71,0-5.42-.07-8.12,0-1.43,0-2.63-.2-3.3-2v-1a2.91,2.91,0,0,1,1.32-2.13c.07,0-.09-.21,0-.06-.72,0-1.08-.54-1.17-1.4a.49.49,0,0,0-.1-.32Z"/><path class="cls-2" d="M53.29,42.13s-.08,0-.09,0c-.78,3.33-2.68,4.29-5.25,4-1.2-.14-2.41,0-3.61,0-.37,0-.85.2-1-.41a2.07,2.07,0,0,1,.24-1.61c.08-.14.16-.3.27-.35,1-.52,1.23-1.41.71-2.75-.73,1.39-1.44,2.75-2.16,4.11a2.11,2.11,0,0,1-2.63.93c-.52-.31-.35-.75-.13-1.21.64-1.27,1.26-2.56,1.92-3.81a4.61,4.61,0,0,0,.57-2.51c-.06-1.3,0-2.6,0-3.91,0-.3,0-.61-.22-.75s-.39.19-.55.35a3.63,3.63,0,0,1-4,1.15c-.57-.18-.78-.51-.49-1.22.16-.4.28-.82.41-1.23a3.25,3.25,0,0,0,.21-2.42,1.78,1.78,0,0,1,0-1.07,1.48,1.48,0,0,0-.28-1.4c-.27-.4-.81-.71-.56-1.41s.82-.25,1.25-.45c0-.52-.31-.84-.46-1.26s-.22-.59,0-.89a.46.46,0,0,1,.7-.16c2.39,1.46,4.89,2.61,7.19,4.3A3.86,3.86,0,0,1,46.7,29.8a4.68,4.68,0,0,0,2.35,2.44,9.11,9.11,0,0,1,4.05,6.35c0,.16,0,.31.19.36Z"/><path class="cls-2" d="M31.24,15.44c0,2.82-1.76,5-4,5s-4-2.21-4.05-5,1.87-5.17,4.08-5.13S31.24,12.65,31.24,15.44Z"/></g></g></svg>