<svg xmlns="http://www.w3.org/2000/svg" viewBox="0 0 1063.17 447.24"><defs><style>.cls-1{fill:#fff;}.cls-2{fill:#f38722;}.cls-3{fill:#546f7a;}.cls-4{fill:#cde629;}</style></defs><title>Ativo 107</title><g id="Camada_2" data-name="Camada 2"><g id="Camada_1-2" data-name="Camada 1"><path class="cls-1" d="M287.88,447.24a157.66,157.66,0,0,1-124.83-60.69c-54-68.81-41.85-168.75,27-222.77A159.38,159.38,0,0,1,288,129.89a157.66,157.66,0,0,1,124.83,60.69c54,68.81,41.85,168.75-27,222.77A159.38,159.38,0,0,1,287.88,447.24Z"/><path class="cls-1" d="M286.72,201.06c-54.84,0-99.46-45.1-99.46-100.53S231.88,0,286.72,0s99.46,45.1,99.46,100.53S341.56,201.06,286.72,201.06Z"/><path class="cls-1" d="M139.24,253.24c-54.84,0-99.46-45.1-99.46-100.53S84.39,52.18,139.24,52.18s99.46,45.1,99.46,100.53S194.08,253.24,139.24,253.24Z"/><path class="cls-1" d="M99.46,401.46C44.62,401.46,0,356.37,0,300.93S44.62,200.4,99.46,200.4s99.46,45.1,99.46,100.53S154.3,401.46,99.46,401.46Z"/><path class="cls-1" d="M453.25,426.23a79,79,0,0,1-29.16-5.58,73.39,73.39,0,0,1-28.62-20.34,78.42,78.42,0,0,1-16.66-33.06c-3-12.25-3.2-26-.5-40.87l.07-.38c3.08-16,9-29.68,17.51-40.68a81.42,81.42,0,0,1,30.77-24.8,76.12,76.12,0,0,1,31.48-6.85c1.94,0,3.9.08,5.84.22a75.18,75.18,0,0,1,34.74,11.33,70.33,70.33,0,0,1,25.7,28.83c6.18,12.5,8.36,26.72,6.48,42.28-.08.68-.18,1.36-.31,2a73.45,73.45,0,0,1-6.25,19.27,10,10,0,0,0-.88,6,41.27,41.27,0,0,1-7.07,30.45q-.38.54-.78,1.08a76.22,76.22,0,0,1-26.93,22.56,78.45,78.45,0,0,1-32.29,8.39c-1,0-2.08.06-3.13.06Z"/><path class="cls-1" d="M519.54,434.45a51.75,51.75,0,0,1-8.19-.66A53.68,53.68,0,0,1,483,419.72c-10.91-10.28-16.09-25-14.23-40.49l8.14-67.47a10,10,0,0,0-1.5-6.58,44.42,44.42,0,0,1-5.07-11.09,57.86,57.86,0,0,1-1.62-26.16,61.58,61.58,0,0,1,8.71-23.25,44.9,44.9,0,0,1,16.82-15.93,10,10,0,0,0,2.53-1.92,45.8,45.8,0,0,1,10.73-8.31,51.37,51.37,0,0,1,25.1-6.62,52.12,52.12,0,0,1,8.24.66,52.82,52.82,0,0,1,28.92,14.8,48.1,48.1,0,0,1,7,8.74,10,10,0,0,0,2.08,2.4,44,44,0,0,1,13.31,19.77,57.53,57.53,0,0,1,2.39,26.57,58.94,58.94,0,0,1-9.17,24.38,47.66,47.66,0,0,1-5.48,6.85,10,10,0,0,0-2.74,5.75l-3.26,27c-1,8.6-2.06,16.8-3.06,24.37-.94,7.17-1.71,13.23-2.29,18-1.9,15.74-10.47,29-23.52,36.41a51.59,51.59,0,0,1-25.41,6.79Z"/><path class="cls-1" d="M603.39,429.84A70.28,70.28,0,0,1,590,428.57a52.53,52.53,0,0,1-19.62-8,40.78,40.78,0,0,1-18.06-32.38l-1.09-28.74c-.28-7.38-.55-15.4-.79-23.83-.26-8.91-.41-18-.45-27.09-.23-22,3.35-41.36,10.62-57.64,7.6-17,17.84-30.56,30.43-40.31a83.81,83.81,0,0,1,44.78-17.75c2.4-.21,4.82-.31,7.19-.31a81,81,0,0,1,39.72,10.38c14,7.76,25.7,19.62,34.81,35.25,8.76,15,13.71,33.41,14.72,54.6V293c0,.53,0,1,.17,7.56q.13,6.43.37,15.72c.16,6.36.31,13.38.45,20.86s.27,14.16.43,20.28q.24,9.56.38,16.1c.07,3.65.12,5.79.14,6.46,0,1.11,0,2.17,0,3.22-.88,15.21-9.3,28.37-23.11,36.11a60.38,60.38,0,0,1-26.25,7.57c-1.21.07-2.42.1-3.59.1a59.51,59.51,0,0,1-23.75-4.87,47.48,47.48,0,0,1-7-3.76,10,10,0,0,0-11.44.37,54,54,0,0,1-14.67,7.71,63,63,0,0,1-18.13,3.34Q604.79,429.84,603.39,429.84Z"/><path class="cls-1" d="M745.41,417.69a61.37,61.37,0,0,1-30.68-8.21C703.31,403,694,393,687.1,379.73c-6.38-12.23-9.61-27.14-9.58-44.34,0-15.65,2.62-29.71,7.63-41.78,5.29-12.74,12.48-23.2,21.37-31.08a66,66,0,0,1,17.13-11.06,10,10,0,0,0,5.37-5.74,44.6,44.6,0,0,1,16.54-21.43,52.79,52.79,0,0,1,30.35-9.53H776a55.39,55.39,0,0,1,29,8.37,45.48,45.48,0,0,1,21.78,37.44l4.07,107a45,45,0,0,1-17.2,37.7,53.46,53.46,0,0,1-26.21,10.89,55.72,55.72,0,0,1-7,.45,55.1,55.1,0,0,1-12.64-1.47,10,10,0,0,0-5,.11,64.46,64.46,0,0,1-8.1,1.74A63.6,63.6,0,0,1,745.41,417.69Z"/><path class="cls-1" d="M847.5,414a71.15,71.15,0,0,1-33.8-8.44c-11.92-6.34-21.74-16.06-29.18-28.88-7.19-12.38-10.94-27.35-11.12-44.49-.19-16.84,2.9-31.88,9.2-44.69,6.44-13.12,15.17-23.65,25.93-31.29a71.65,71.65,0,0,1,37.71-13.4c1.43-.08,2.87-.13,4.28-.13a68.51,68.51,0,0,1,35.18,9.61c11.66,6.86,21.19,17.13,28.33,30.52,6.65,12.48,10.24,27.63,10.69,45,.39,16.66-2.81,31.54-9.52,44.21s-15.73,22.73-26.79,29.87a74.6,74.6,0,0,1-36.45,12C850.47,413.93,849,414,847.5,414Z"/><path class="cls-1" d="M918.53,411.3a53.65,53.65,0,0,1-30.24-9.43c-12.39-8.44-19.84-22.19-20.43-37.75l-2.58-68a10,10,0,0,0-2.53-6.28,44,44,0,0,1-6.74-10.1,57.87,57.87,0,0,1-5.72-25.58,61.57,61.57,0,0,1,4.95-24.32,44.89,44.89,0,0,1,14.11-18.39,10,10,0,0,0,2.2-2.3,45.78,45.78,0,0,1,9.3-9.9,50.89,50.89,0,0,1,31.91-11.13h.13a52.74,52.74,0,0,1,30.83,10.06,48.25,48.25,0,0,1,8.24,7.54,10,10,0,0,0,2.43,2,44,44,0,0,1,16.26,17.43,57.54,57.54,0,0,1,6.54,25.87A58.91,58.91,0,0,1,972,276.63a47,47,0,0,1-4.32,7.58,10,10,0,0,0-1.81,6.13l1,27.24c.33,8.63.6,16.89.82,24.55.2,7.1.39,13.22.58,18.17.6,15.84-5.78,30.3-17.5,39.66a51,51,0,0,1-32.13,11.33Z"/><path class="cls-1" d="M988.2,408.62a79.78,79.78,0,0,1-17.27-1.91,73.35,73.35,0,0,1-31.47-15.58,78.38,78.38,0,0,1-21.66-30c-4.92-11.62-7.25-25.17-6.93-40.28v-.36c.52-16.3,4.19-30.74,10.89-42.95a81.45,81.45,0,0,1,26.48-29.33,75.77,75.77,0,0,1,35.81-12.42c2.2-.18,4.41-.27,6.58-.27a74.53,74.53,0,0,1,29.52,6,70.34,70.34,0,0,1,29.91,24.43c8.07,11.37,12.46,25.08,13.06,40.74,0,.68,0,1.37,0,2a73.5,73.5,0,0,1-3.14,20,10,10,0,0,0,.08,6.11,41.26,41.26,0,0,1-2.19,31.19c-.19.38-.38.78-.59,1.17a76.19,76.19,0,0,1-23.06,26.53,78.43,78.43,0,0,1-30.57,13.36A79.29,79.29,0,0,1,988.2,408.62Z"/><path class="cls-2" d="M353.11,371.66a105.6,105.6,0,1,1,18-148.36A105.62,105.62,0,0,1,353.11,371.66Z"/><ellipse class="cls-2" cx="286.72" cy="100.53" rx="54.46" ry="55.53"/><ellipse class="cls-2" cx="139.24" cy="152.71" rx="54.46" ry="55.53"/><ellipse class="cls-2" cx="99.46" cy="300.93" rx="54.46" ry="55.53"/><path class="cls-3" d="M462.94,366.39a13.13,13.13,0,0,1,8.89-5.34,19.55,19.55,0,0,1,9.73.95,12.5,12.5,0,0,1,6.48,5.13,6,6,0,0,1-.39,7.05A41.34,41.34,0,0,1,473,386.5a43.48,43.48,0,0,1-18,4.7A43.94,43.94,0,0,1,437,388.11a38.52,38.52,0,0,1-15.08-10.75,43.66,43.66,0,0,1-9.1-18.5q-2.77-11.21,0-26.23,3.06-15.89,10.79-25.83a46.65,46.65,0,0,1,17.53-14.37,40.93,40.93,0,0,1,20.25-3.63,40.34,40.34,0,0,1,18.74,6,35.63,35.63,0,0,1,13,14.73q4.69,9.5,3.11,22.59-2.06,11.43-9.07,18.26a38.67,38.67,0,0,1-15.92,9.53,43.58,43.58,0,0,1-18.06,1.6,35.43,35.43,0,0,1-15.5-5.3,25,25,0,0,0,4.2,10.7,13.43,13.43,0,0,0,6.83,5.06,11.64,11.64,0,0,0,7.71-.33A14.63,14.63,0,0,0,462.94,366.39Zm4.78-35.83q1-6.07-2.69-9.94a13.87,13.87,0,0,0-8.62-4.47,15.21,15.21,0,0,0-9.78,2.26q-4.81,2.85-6.13,10-.94,5.84,2.76,9.38a15.56,15.56,0,0,0,8.76,4.26,15.09,15.09,0,0,0,9.86-2Q466.68,337.31,467.72,330.56Z"/><path class="cls-3" d="M558.9,269.43a22.7,22.7,0,0,1,.91,10.53,24,24,0,0,1-3.72,10q-2.94,4.45-7.48,4.13l-3.39-.41-3,24.83-3.16,26.18q-1.55,12.87-3,24t-2.33,18.38q-.87,7.23-6,10.15a16.09,16.09,0,0,1-10.78,2,18.49,18.49,0,0,1-9.93-5q-4.32-4.07-3.5-10.84L514.75,290,510,289.4q-4.74-.57-6.21-5.44a23.13,23.13,0,0,1-.57-10.49A26.58,26.58,0,0,1,507,263.39q2.83-4.47,6.72-4.46l4.74.57q1.15-7.64,6.19-10.47a16,16,0,0,1,10.65-1.92,17.64,17.64,0,0,1,9.81,5.08q4.19,4.17,3.6,11l3.61.44A8,8,0,0,1,558.9,269.43Z"/><path class="cls-4" d="M585,308.21q-.29-25.47,7.58-43.06t19.91-26.92a49.16,49.16,0,0,1,26.33-10.56,46.25,46.25,0,0,1,27,5.8q12.67,7,21.55,22.27t10,38.64q0,.46.15,6.93t.38,15.91q.24,9.43.44,20.57t.44,20.57q.24,9.44.38,15.91t.15,6.93Q699,386,694,388.81A25.5,25.5,0,0,1,682.82,392a24.94,24.94,0,0,1-11.45-2q-5.32-2.3-6-7.51,0-.45-.12-6.25t-.43-14.43l-10.11.38-11.47.44-11.59.44-10.45.4q0,7.05.13,12.51t.2,8.18a6.9,6.9,0,0,1-2.4,5.66,18.17,18.17,0,0,1-6.24,3.54,27.77,27.77,0,0,1-8,1.44,35.81,35.81,0,0,1-8.21-.6,17.57,17.57,0,0,1-6.58-2.59,5.85,5.85,0,0,1-2.8-4.79l-.4-10.57-.69-18.17q-.4-10.56-.78-23.52T585,308.21Zm35.54,19.35,10-.38,11.59-.44q5.9-.23,11.59-.33t10.23-.27q-.1-8.64-.25-15.69T663.63,300A52.36,52.36,0,0,0,660,281.47q-3.25-7.61-8.06-11.52a15.57,15.57,0,0,0-10.27-3.82,15.14,15.14,0,0,0-10.18,4.48q-4.73,4.39-7.91,13.27t-3.34,22.76q.09,2.27.19,8T620.54,327.56Z"/><path class="cls-4" d="M761.19,263.06q-.26-6.82,4.4-10.06a17.63,17.63,0,0,1,10.34-3.24,20.07,20.07,0,0,1,10.7,3.12,10.5,10.5,0,0,1,5.23,9l4.07,107q.22,5.68-3.76,8.79a18.17,18.17,0,0,1-9.07,3.76,20.21,20.21,0,0,1-9.94-1.21,11.83,11.83,0,0,1-6.83-6.11,31.11,31.11,0,0,1-16.75,8.26A26.62,26.62,0,0,1,732,379.06q-8.26-4.69-13.9-15.51t-5.62-28.11q.05-16.61,4.95-28.4t12.27-18.33a27.72,27.72,0,0,1,16.1-7.32,24,24,0,0,1,16.21,4.39Zm-24,75.54q.25,12.51,4.36,18.95t9,6.48q4.89,0,9.09-6.15t4.4-18.94l-.33-8.63q-1.12-11.56-5.64-16.73t-9.25-4q-4.73,1.2-8.32,8.51T737.21,338.6Z"/><path class="cls-4" d="M808.39,331.8q-.2-17.06,5.61-28.88t14.78-18.19a37,37,0,0,1,19.53-7,33.93,33.93,0,0,1,19.63,4.71q9.08,5.34,15.2,16.83t6.58,29.44q.38,15.91-5.46,26.94t-14.83,16.83a39.84,39.84,0,0,1-19.55,6.43,36.56,36.56,0,0,1-19.73-4.25q-9.18-4.88-15.38-15.57T808.39,331.8Zm55.8,1.52q-.09-14.33-4.9-21.2t-10.6-6.54q-5.79.34-10.41,7.56T834,334.47q.25,12.74,5.05,19.26t10.37,6.43q5.57-.1,10.21-6.76T864.19,333.32Z"/><path class="cls-4" d="M939.64,241.49a22.69,22.69,0,0,1,2.55,10.25,24,24,0,0,1-2.11,10.43q-2.2,4.86-6.74,5.26l-3.41.13.95,25,1,26.35q.49,13,.81,24.2t.59,18.52q.28,7.27-4.36,11a16.09,16.09,0,0,1-10.33,3.69A18.49,18.49,0,0,1,908,372.95q-4.9-3.34-5.16-10.16l-3.57-94.05-4.77.18q-4.77.18-7-4.4a23.14,23.14,0,0,1-2.21-10.27,26.58,26.58,0,0,1,2.1-10.54q2.09-4.86,5.94-5.46l4.77-.18q-.07-7.73,4.46-11.32a16,16,0,0,1,10.22-3.57,17.64,17.64,0,0,1,10.48,3.47q4.79,3.46,5.28,10.27l3.63-.14A8,8,0,0,1,939.64,241.49Z"/><path class="cls-4" d="M1000.76,347a13.13,13.13,0,0,1,7.94-6.67,19.57,19.57,0,0,1,9.76-.6,12.51,12.51,0,0,1,7.21,4,6,6,0,0,1,.72,7,41.31,41.31,0,0,1-12.53,14.47,43.46,43.46,0,0,1-17,7.47,43.92,43.92,0,0,1-18.32-.21,38.5,38.5,0,0,1-16.58-8.24A43.64,43.64,0,0,1,950,347.46q-4.5-10.63-4.17-25.89.52-16.17,6.59-27.21a46.66,46.66,0,0,1,15.05-17,40.93,40.93,0,0,1,19.42-6.77,40.35,40.35,0,0,1,19.45,3,35.64,35.64,0,0,1,15.15,12.51q6.13,8.64,6.63,21.82-.24,11.61-6.09,19.46a38.64,38.64,0,0,1-14.22,11.92,43.58,43.58,0,0,1-17.58,4.42,35.43,35.43,0,0,1-16.15-2.8,25,25,0,0,0,5.84,9.9,13.42,13.42,0,0,0,7.54,3.92,11.63,11.63,0,0,0,7.56-1.54A14.63,14.63,0,0,0,1000.76,347Zm-.92-36.14q0-6.14-4.23-9.4a13.87,13.87,0,0,0-9.22-3.06,15.21,15.21,0,0,0-9.3,3.77q-4.3,3.58-4.48,10.86,0,5.92,4.2,8.83a15.55,15.55,0,0,0,9.32,2.83,15.09,15.09,0,0,0,9.42-3.54Q999.87,317.7,999.84,310.87Z"/><path class="cls-1" d="M305.19,214.66q18.76,2.72,31.74,10.79a67.09,67.09,0,0,1,20.57,19.34,63.7,63.7,0,0,1,10,24.58,75.84,75.84,0,0,1,.15,26.43,74.25,74.25,0,0,1-9.24,25.07,70.32,70.32,0,0,1-18.16,20.51,73.64,73.64,0,0,1-26.35,12.54q-15.19,4-34,1.28l-1.14-.17-2.25,15.57a7.24,7.24,0,0,1-3.31,5.13,17.61,17.61,0,0,1-6.81,2.64,25.87,25.87,0,0,1-8.31.08,31.1,31.1,0,0,1-8-2.21A16.22,16.22,0,0,1,244.2,372a7.59,7.59,0,0,1-1.77-6.33l21.08-145.58q1-5.23,6.77-7.2a28.52,28.52,0,0,1,12.45-1.24l0-.23ZM284,325.4q15.56,2.25,26.89-1.71t18-11.3a33.23,33.23,0,0,0,8.37-16.67,30.75,30.75,0,0,0-2.06-18.06q-3.76-8.72-13.4-15.61t-25.43-9.17a14.57,14.57,0,0,0-2.78-.17L283.1,325.27Z"/></g></g></svg>