<svg xmlns="http://www.w3.org/2000/svg" viewBox="0 0 1063.17 447.24"><defs><style>.cls-1{fill:#fff;}.cls-2{fill:#948f8f;}.cls-3{fill:#333;}</style></defs><title>Ativo 110</title><g id="Camada_2" data-name="Camada 2"><g id="Camada_1-2" data-name="Camada 1"><path class="cls-1" d="M287.88,447.24a157.65,157.65,0,0,1-124.83-60.69c-54-68.81-41.85-168.75,27-222.77A159.38,159.38,0,0,1,288,129.89a157.66,157.66,0,0,1,124.83,60.69c54,68.81,41.85,168.75-27,222.77A159.38,159.38,0,0,1,287.88,447.24Z"/><path class="cls-1" d="M286.72,201.06c-54.84,0-99.46-45.1-99.46-100.53S231.88,0,286.72,0s99.46,45.1,99.46,100.53S341.56,201.06,286.72,201.06Z"/><path class="cls-1" d="M139.24,253.24c-54.84,0-99.46-45.1-99.46-100.53S84.39,52.18,139.24,52.18s99.46,45.1,99.46,100.53S194.08,253.24,139.24,253.24Z"/><path class="cls-1" d="M99.46,401.46C44.62,401.46,0,356.37,0,300.93S44.62,200.4,99.46,200.4s99.46,45.1,99.46,100.53S154.3,401.46,99.46,401.46Z"/><path class="cls-1" d="M453.25,426.24a79,79,0,0,1-29.16-5.58,73.34,73.34,0,0,1-28.62-20.34,78.42,78.42,0,0,1-16.66-33.06c-3-12.26-3.2-26-.5-40.87l.07-.35c3.08-16,9-29.71,17.52-40.7a81.42,81.42,0,0,1,30.77-24.8,76.11,76.11,0,0,1,31.48-6.85c1.93,0,3.9.08,5.83.22a75.18,75.18,0,0,1,34.75,11.33,70.37,70.37,0,0,1,25.7,28.83c6.18,12.51,8.36,26.73,6.49,42.29-.08.67-.18,1.36-.31,2a73.47,73.47,0,0,1-6.25,19.26,10,10,0,0,0-.88,6,41.27,41.27,0,0,1-7.06,30.45c-.25.36-.51.71-.77,1.07a76.22,76.22,0,0,1-26.95,22.57,78.42,78.42,0,0,1-32.29,8.38C455.34,426.21,454.29,426.24,453.25,426.24Z"/><path class="cls-1" d="M519.54,434.45a51.81,51.81,0,0,1-8.19-.66A53.7,53.7,0,0,1,483,419.72c-10.91-10.28-16.09-25-14.23-40.49l8.14-67.47a10,10,0,0,0-1.5-6.58,44.44,44.44,0,0,1-5.07-11.08,57.91,57.91,0,0,1-1.62-26.17,61.64,61.64,0,0,1,8.71-23.24,44.94,44.94,0,0,1,16.83-15.94,10,10,0,0,0,2.53-1.92,45.85,45.85,0,0,1,10.75-8.32,51.33,51.33,0,0,1,25.09-6.62,52.12,52.12,0,0,1,8.24.66,52.83,52.83,0,0,1,28.92,14.8,48,48,0,0,1,7,8.74,10,10,0,0,0,2.08,2.4,44,44,0,0,1,13.31,19.77,57.54,57.54,0,0,1,2.39,26.58,58.9,58.9,0,0,1-9.17,24.36,47.75,47.75,0,0,1-5.48,6.85,10,10,0,0,0-2.74,5.75l-3.26,27c-1,8.54-2.06,16.74-3.06,24.37-.93,7.1-1.7,13.17-2.29,18-1.9,15.75-10.47,29-23.53,36.41a51.61,51.61,0,0,1-25.4,6.78Z"/><path class="cls-1" d="M603.39,429.84a70.31,70.31,0,0,1-13.4-1.27,52.37,52.37,0,0,1-19.61-8,40.76,40.76,0,0,1-18-32.36l-1.09-28.75c-.28-7.34-.54-15.36-.79-23.83-.26-8.92-.41-18-.45-27.1-.23-22,3.35-41.36,10.62-57.64,7.6-17,17.84-30.56,30.43-40.31a83.83,83.83,0,0,1,44.77-17.75c2.4-.21,4.82-.31,7.2-.31a81,81,0,0,1,39.72,10.38c14,7.75,25.69,19.61,34.81,35.25,8.75,15,13.71,33.41,14.72,54.6l0,.36c0,.44,0,.7.17,7.54q.13,6.42.37,15.71c.17,6.49.32,13.51.45,20.87.12,7.14.27,14,.43,20.28s.29,11.74.38,16.11c.07,3.63.12,5.77.14,6.44,0,1.11,0,2.17,0,3.23-.88,15.2-9.3,28.37-23.12,36.11a60.46,60.46,0,0,1-26.26,7.56c-1.2.07-2.41.1-3.58.1a59.48,59.48,0,0,1-23.76-4.87,47.26,47.26,0,0,1-7-3.76,10,10,0,0,0-11.43.37,53.94,53.94,0,0,1-14.67,7.7,63,63,0,0,1-18.13,3.34Q604.79,429.84,603.39,429.84Z"/><path class="cls-1" d="M745.42,417.69a61.38,61.38,0,0,1-30.68-8.2C703.31,403,694,393,687.1,379.73c-6.39-12.23-9.61-27.15-9.58-44.35,0-15.66,2.62-29.72,7.63-41.78,5.29-12.74,12.48-23.2,21.37-31.08a65.88,65.88,0,0,1,17.13-11.06,10,10,0,0,0,5.37-5.74,44.6,44.6,0,0,1,16.54-21.43,52.75,52.75,0,0,1,30.34-9.53H776a55.38,55.38,0,0,1,29,8.36,45.49,45.49,0,0,1,21.78,37.44l4.07,107a45,45,0,0,1-17.2,37.71,53.48,53.48,0,0,1-26.2,10.89,56.21,56.21,0,0,1-7,.44,55.16,55.16,0,0,1-12.64-1.47,10,10,0,0,0-5,.11,64.59,64.59,0,0,1-8.1,1.74A63.75,63.75,0,0,1,745.42,417.69Z"/><path class="cls-1" d="M847.5,414a71.14,71.14,0,0,1-33.81-8.44c-11.92-6.34-21.73-16.05-29.18-28.87-7.19-12.38-10.94-27.35-11.12-44.5-.19-16.85,2.9-31.88,9.2-44.69,6.44-13.12,15.17-23.65,25.93-31.29a71.68,71.68,0,0,1,37.7-13.4c1.44-.08,2.88-.13,4.29-.13a68.52,68.52,0,0,1,35.18,9.61c11.66,6.87,21.2,17.14,28.33,30.52,6.64,12.47,10.24,27.62,10.69,45,.39,16.66-2.81,31.54-9.52,44.21s-15.73,22.73-26.79,29.87a74.6,74.6,0,0,1-36.45,12C850.47,413.93,849,414,847.5,414Z"/><path class="cls-1" d="M918.53,411.3a53.68,53.68,0,0,1-30.24-9.43c-12.39-8.44-19.83-22.19-20.42-37.74l-2.58-68a10,10,0,0,0-2.53-6.28,43.9,43.9,0,0,1-6.74-10.1,57.85,57.85,0,0,1-5.72-25.58,61.6,61.6,0,0,1,4.95-24.32,44.93,44.93,0,0,1,14.11-18.39,10,10,0,0,0,2.2-2.29,45.85,45.85,0,0,1,9.29-9.9,50.93,50.93,0,0,1,31.92-11.13h.13a52.73,52.73,0,0,1,30.84,10.07,48,48,0,0,1,8.24,7.54,10,10,0,0,0,2.43,2,44,44,0,0,1,16.25,17.42,57.52,57.52,0,0,1,6.54,25.87A58.9,58.9,0,0,1,972,276.64a47,47,0,0,1-4.32,7.58,10,10,0,0,0-1.81,6.13l1,27.24c.33,8.57.6,16.83.82,24.54.2,7.11.39,13.23.58,18.18.6,15.85-5.78,30.3-17.51,39.66a51,51,0,0,1-32.12,11.33Z"/><path class="cls-1" d="M988.2,408.62a79.67,79.67,0,0,1-17.27-1.91,73.31,73.31,0,0,1-31.46-15.59,78.36,78.36,0,0,1-21.65-30c-4.92-11.62-7.25-25.17-6.92-40.27v-.41c.53-16.26,4.19-30.71,10.9-42.91,6.8-12.37,15.71-22.24,26.48-29.33a75.77,75.77,0,0,1,35.82-12.42c2.2-.18,4.41-.27,6.57-.27a74.53,74.53,0,0,1,29.52,6,70.34,70.34,0,0,1,29.91,24.42c8.07,11.38,12.47,25.08,13.06,40.74,0,.68,0,1.37,0,2a73.45,73.45,0,0,1-3.14,20,10,10,0,0,0,.08,6.11,41.27,41.27,0,0,1-2.19,31.19q-.28.59-.59,1.16a76.2,76.2,0,0,1-23.06,26.54,78.44,78.44,0,0,1-30.56,13.36A79.34,79.34,0,0,1,988.2,408.62Z"/><path class="cls-2" d="M353.11,371.66a105.6,105.6,0,1,1,18-148.36A105.62,105.62,0,0,1,353.11,371.66Z"/><ellipse class="cls-2" cx="286.72" cy="100.53" rx="54.46" ry="55.53"/><ellipse class="cls-2" cx="139.24" cy="152.71" rx="54.46" ry="55.53"/><ellipse class="cls-2" cx="99.46" cy="300.93" rx="54.46" ry="55.53"/><path class="cls-3" d="M462.94,366.39a13.12,13.12,0,0,1,8.89-5.34,19.54,19.54,0,0,1,9.73.95,12.51,12.51,0,0,1,6.48,5.13,6,6,0,0,1-.39,7.05A41.32,41.32,0,0,1,473,386.5a43.47,43.47,0,0,1-18,4.7A43.92,43.92,0,0,1,437,388.11a38.5,38.5,0,0,1-15.08-10.75,43.65,43.65,0,0,1-9.1-18.5q-2.77-11.21,0-26.23,3.06-15.89,10.79-25.83a46.65,46.65,0,0,1,17.53-14.37,40.93,40.93,0,0,1,20.25-3.63,40.35,40.35,0,0,1,18.74,6,35.65,35.65,0,0,1,13,14.73q4.69,9.5,3.12,22.59-2.07,11.43-9.07,18.26a38.65,38.65,0,0,1-15.92,9.53,43.56,43.56,0,0,1-18.05,1.6,35.44,35.44,0,0,1-15.5-5.3,25,25,0,0,0,4.21,10.7,13.43,13.43,0,0,0,6.83,5.06,11.63,11.63,0,0,0,7.71-.33A14.63,14.63,0,0,0,462.94,366.39Zm4.78-35.83q1-6.07-2.69-9.94a13.87,13.87,0,0,0-8.62-4.47,15.22,15.22,0,0,0-9.78,2.25q-4.81,2.86-6.13,10-.94,5.84,2.76,9.38a15.56,15.56,0,0,0,8.76,4.26,15.08,15.08,0,0,0,9.86-2Q466.68,337.31,467.72,330.56Z"/><path class="cls-3" d="M558.9,269.43a22.7,22.7,0,0,1,.91,10.53,24,24,0,0,1-3.72,10q-2.94,4.45-7.48,4.13l-3.39-.41-3,24.83-3.16,26.18q-1.55,12.87-3,24t-2.33,18.38q-.87,7.22-6,10.15a16.1,16.1,0,0,1-10.78,2,18.49,18.49,0,0,1-9.93-5q-4.32-4.07-3.5-10.84L514.75,290,510,289.4q-4.74-.57-6.21-5.44a23.14,23.14,0,0,1-.57-10.49A26.61,26.61,0,0,1,507,263.39q2.83-4.47,6.72-4.46l4.74.57q1.15-7.64,6.19-10.47a16,16,0,0,1,10.65-1.92,17.65,17.65,0,0,1,9.81,5.08q4.19,4.17,3.6,11l3.61.44A8,8,0,0,1,558.9,269.43Z"/><path class="cls-3" d="M585,308.21q-.29-25.46,7.58-43.06t19.91-26.92a49.19,49.19,0,0,1,26.33-10.56,46.26,46.26,0,0,1,27,5.8q12.67,7,21.55,22.27t10,38.64q0,.46.15,6.93t.38,15.91q.24,9.44.44,20.57t.44,20.57q.24,9.43.38,15.91t.15,6.93Q699,386,694,388.81A25.5,25.5,0,0,1,682.82,392a24.93,24.93,0,0,1-11.45-2q-5.32-2.3-6-7.51,0-.45-.12-6.25t-.43-14.43l-10.11.38-11.47.44-11.59.44-10.45.4q0,7.05.13,12.51t.2,8.18a6.9,6.9,0,0,1-2.4,5.67,18.17,18.17,0,0,1-6.24,3.54,27.76,27.76,0,0,1-8,1.44,35.75,35.75,0,0,1-8.21-.6,17.52,17.52,0,0,1-6.58-2.59,5.85,5.85,0,0,1-2.8-4.79q-.11-2.95-.4-10.56l-.69-18.17q-.4-10.56-.78-23.52T585,308.21Zm35.54,19.35,10-.38,11.59-.44q5.91-.22,11.59-.33t10.23-.27q-.1-8.64-.25-15.69T663.63,300A52.32,52.32,0,0,0,660,281.47q-3.25-7.61-8.06-11.52a15.58,15.58,0,0,0-10.27-3.82,15.15,15.15,0,0,0-10.18,4.48q-4.73,4.39-7.91,13.27t-3.34,22.76q.09,2.27.19,8T620.54,327.56Z"/><path class="cls-3" d="M761.19,263.06q-.26-6.82,4.4-10.06a17.61,17.61,0,0,1,10.34-3.24,20.06,20.06,0,0,1,10.7,3.12,10.5,10.5,0,0,1,5.23,9l4.07,107q.22,5.68-3.76,8.79a18.17,18.17,0,0,1-9.07,3.76,20.23,20.23,0,0,1-9.94-1.22,11.83,11.83,0,0,1-6.83-6.11,31.12,31.12,0,0,1-16.75,8.26A26.65,26.65,0,0,1,732,379.06q-8.26-4.69-13.9-15.51t-5.62-28.11q.05-16.61,5-28.4t12.27-18.32a27.71,27.71,0,0,1,16.1-7.32,24,24,0,0,1,16.21,4.39Zm-24,75.54q.24,12.5,4.36,18.94t9,6.48q4.89,0,9.09-6.15t4.4-18.94l-.33-8.63q-1.12-11.56-5.64-16.74t-9.25-4q-4.73,1.2-8.32,8.51T737.21,338.6Z"/><path class="cls-3" d="M808.39,331.8q-.19-17.06,5.61-28.88t14.78-18.19a37,37,0,0,1,19.53-7,33.93,33.93,0,0,1,19.63,4.71q9.07,5.35,15.2,16.83t6.58,29.44q.37,15.91-5.46,26.94t-14.83,16.83a39.84,39.84,0,0,1-19.55,6.43,36.55,36.55,0,0,1-19.73-4.26q-9.18-4.88-15.38-15.57T808.39,331.8Zm55.8,1.52q-.09-14.33-4.9-21.2t-10.6-6.54q-5.79.34-10.41,7.56T834,334.46q.25,12.74,5.05,19.26t10.37,6.43q5.57-.1,10.21-6.76T864.19,333.32Z"/><path class="cls-3" d="M939.64,241.49a22.68,22.68,0,0,1,2.55,10.25,24,24,0,0,1-2.11,10.43q-2.2,4.86-6.74,5.26l-3.41.13q.44,11.59.95,25t1,26.35q.49,12.95.81,24.2t.59,18.52q.28,7.27-4.36,11a16.09,16.09,0,0,1-10.33,3.69A18.49,18.49,0,0,1,908,372.95q-4.9-3.34-5.16-10.16l-3.57-94.05-4.77.18q-4.77.18-7-4.4a23.13,23.13,0,0,1-2.21-10.27,26.59,26.59,0,0,1,2.1-10.55q2.09-4.86,5.94-5.46l4.77-.18q-.07-7.73,4.46-11.32a16,16,0,0,1,10.22-3.57,17.63,17.63,0,0,1,10.48,3.47q4.79,3.46,5.28,10.26l3.63-.14A8,8,0,0,1,939.64,241.49Z"/><path class="cls-3" d="M1000.76,347a13.11,13.11,0,0,1,7.94-6.67,19.52,19.52,0,0,1,9.76-.6,12.5,12.5,0,0,1,7.21,4,6,6,0,0,1,.72,7,41.3,41.3,0,0,1-12.53,14.47,43.68,43.68,0,0,1-35.33,7.26,38.48,38.48,0,0,1-16.58-8.24A43.63,43.63,0,0,1,950,347.46q-4.5-10.63-4.17-25.89.52-16.17,6.59-27.21a46.66,46.66,0,0,1,15.05-17,40.92,40.92,0,0,1,19.42-6.77,40.35,40.35,0,0,1,19.45,3,35.65,35.65,0,0,1,15.15,12.51q6.13,8.64,6.63,21.82-.24,11.61-6.09,19.46a38.64,38.64,0,0,1-14.22,11.92,43.59,43.59,0,0,1-17.58,4.42,35.42,35.42,0,0,1-16.15-2.8,25,25,0,0,0,5.84,9.9,13.42,13.42,0,0,0,7.54,3.92,11.63,11.63,0,0,0,7.56-1.54A14.64,14.64,0,0,0,1000.76,347Zm-.92-36.14q0-6.14-4.22-9.4a13.87,13.87,0,0,0-9.22-3.06,15.2,15.2,0,0,0-9.3,3.77q-4.3,3.58-4.48,10.86,0,5.92,4.21,8.83a15.55,15.55,0,0,0,9.32,2.83,15.09,15.09,0,0,0,9.42-3.54Q999.87,317.7,999.84,310.87Z"/><path class="cls-3" d="M305.19,214.66q18.76,2.72,31.74,10.79a67.07,67.07,0,0,1,20.57,19.33,63.7,63.7,0,0,1,10,24.58,75.83,75.83,0,0,1,.15,26.43,74.24,74.24,0,0,1-9.24,25.07,70.28,70.28,0,0,1-18.16,20.51,73.61,73.61,0,0,1-26.35,12.54q-15.19,4-34,1.28l-1.15-.17-2.25,15.57a7.24,7.24,0,0,1-3.31,5.13,17.63,17.63,0,0,1-6.81,2.64,25.92,25.92,0,0,1-8.31.08,31.08,31.08,0,0,1-8-2.21,16.21,16.21,0,0,1-5.93-4.25,7.59,7.59,0,0,1-1.77-6.33l21.08-145.57q1-5.23,6.77-7.2a28.5,28.5,0,0,1,12.45-1.24l0-.23ZM284,325.4q15.56,2.25,26.89-1.71t18-11.3a33.23,33.23,0,0,0,8.37-16.66,30.76,30.76,0,0,0-2.06-18.06q-3.76-8.72-13.4-15.61t-25.43-9.17a14.56,14.56,0,0,0-2.78-.17L283.1,325.27Z"/></g></g></svg>