<svg xmlns="http://www.w3.org/2000/svg" viewBox="0 0 1063.17 447.24"><defs><style>.cls-1{fill:#999;}.cls-2{fill:#fff;}.cls-3{fill:#f38722;}</style></defs><title>Ativo 109</title><g id="Camada_2" data-name="Camada 2"><g id="Camada_1-2" data-name="Camada 1"><path d="M287.88,447.24a157.65,157.65,0,0,1-124.83-60.69c-54-68.81-41.85-168.75,27-222.77A159.38,159.38,0,0,1,288,129.89a157.66,157.66,0,0,1,124.83,60.69c54,68.81,41.84,168.75-27,222.77A159.38,159.38,0,0,1,287.88,447.24Z"/><path d="M286.72,201.06c-54.84,0-99.46-45.1-99.46-100.53S231.88,0,286.72,0s99.46,45.1,99.46,100.53S341.56,201.06,286.72,201.06Z"/><path d="M139.24,253.24c-54.84,0-99.46-45.1-99.46-100.53S84.39,52.18,139.24,52.18s99.46,45.1,99.46,100.53S194.08,253.24,139.24,253.24Z"/><path d="M99.46,401.46C44.62,401.46,0,356.37,0,300.93S44.62,200.4,99.46,200.4s99.46,45.1,99.46,100.53S154.3,401.46,99.46,401.46Z"/><path d="M453.25,426.24a78.94,78.94,0,0,1-29.17-5.58,73.31,73.31,0,0,1-28.62-20.34,78.4,78.4,0,0,1-16.66-33.06c-3-12.25-3.2-26-.5-40.87l.07-.37c3.08-16,9-29.7,17.52-40.69a81.42,81.42,0,0,1,30.76-24.79,76.1,76.1,0,0,1,31.48-6.85c1.93,0,3.9.08,5.84.22a75.21,75.21,0,0,1,34.75,11.33,70.39,70.39,0,0,1,25.7,28.83c6.18,12.51,8.36,26.74,6.49,42.29-.08.67-.18,1.36-.31,2a73.49,73.49,0,0,1-6.25,19.25,10,10,0,0,0-.88,6,41.27,41.27,0,0,1-7.07,30.45q-.38.54-.78,1.07a76.19,76.19,0,0,1-26.94,22.57,78.46,78.46,0,0,1-32.29,8.38C455.35,426.21,454.29,426.24,453.25,426.24Z"/><path d="M519.54,434.45a51.74,51.74,0,0,1-8.19-.66A53.68,53.68,0,0,1,483,419.71c-10.9-10.27-16.09-25-14.22-40.48l8.14-67.48a10,10,0,0,0-1.5-6.59,44.41,44.41,0,0,1-5.07-11.08,57.88,57.88,0,0,1-1.62-26.17,61.56,61.56,0,0,1,8.71-23.23,44.88,44.88,0,0,1,16.82-15.94,10,10,0,0,0,2.53-1.92,45.81,45.81,0,0,1,10.74-8.31,51.37,51.37,0,0,1,25.1-6.62,52.13,52.13,0,0,1,8.24.66,52.83,52.83,0,0,1,28.92,14.8,48.16,48.16,0,0,1,7,8.74,10,10,0,0,0,2.08,2.4,44,44,0,0,1,13.31,19.77,57.53,57.53,0,0,1,2.39,26.58,58.91,58.91,0,0,1-9.16,24.36,47.86,47.86,0,0,1-5.49,6.86,10,10,0,0,0-2.74,5.75l-3.26,27c-1,8.41-2,16.6-3.05,24.36-.92,7-1.69,13-2.29,18-1.9,15.74-10.47,29-23.53,36.41a51.59,51.59,0,0,1-25.4,6.78Z"/><path d="M603.39,429.84A70.29,70.29,0,0,1,590,428.57a52.51,52.51,0,0,1-19.62-8,40.77,40.77,0,0,1-18.06-32.39l-1.09-28.73c-.28-7.3-.54-15.32-.79-23.84-.26-8.92-.41-18-.45-27.09-.23-22,3.35-41.36,10.62-57.64,7.6-17,17.84-30.55,30.43-40.31a83.83,83.83,0,0,1,44.77-17.76c2.4-.21,4.82-.31,7.19-.31a81,81,0,0,1,39.72,10.38c14,7.75,25.69,19.62,34.81,35.25,8.75,15,13.71,33.41,14.72,54.59l0,.36c0,.44,0,.69.17,7.54q.13,6.42.37,15.71c.17,6.45.31,13.47.45,20.87s.27,14.16.44,20.27q.24,9.58.38,16.12.11,5.44.14,6.44c0,1.11,0,2.17,0,3.23-.88,15.2-9.31,28.37-23.12,36.11a60.37,60.37,0,0,1-26.25,7.56c-1.2.07-2.41.1-3.58.1a59.56,59.56,0,0,1-23.74-4.87,47.72,47.72,0,0,1-7-3.77,10,10,0,0,0-11.44.37,54,54,0,0,1-14.68,7.7,63,63,0,0,1-18.13,3.34Q604.79,429.84,603.39,429.84Z"/><path d="M745.41,417.69a61.37,61.37,0,0,1-30.67-8.2C703.31,403,694,393,687.11,379.74c-6.39-12.24-9.61-27.16-9.58-44.35,0-15.64,2.61-29.7,7.63-41.77,5.29-12.75,12.49-23.21,21.38-31.09a65.89,65.89,0,0,1,17.13-11.06,10,10,0,0,0,5.37-5.74,44.61,44.61,0,0,1,16.53-21.43,52.8,52.8,0,0,1,30.35-9.54H776a55.39,55.39,0,0,1,29,8.37,45.49,45.49,0,0,1,21.78,37.44l4.07,107a45,45,0,0,1-17.2,37.71,53.43,53.43,0,0,1-26.21,10.89,55.77,55.77,0,0,1-7,.45,55,55,0,0,1-12.64-1.47,10,10,0,0,0-5,.11,64.58,64.58,0,0,1-8.11,1.74A63.56,63.56,0,0,1,745.41,417.69Z"/><path d="M847.5,414a71.14,71.14,0,0,1-33.81-8.44c-11.92-6.34-21.73-16-29.18-28.87-7.19-12.38-10.93-27.35-11.12-44.49-.19-16.85,2.9-31.88,9.2-44.69,6.44-13.12,15.16-23.65,25.92-31.29a71.69,71.69,0,0,1,37.71-13.4c1.43-.08,2.88-.13,4.28-.13a68.53,68.53,0,0,1,35.18,9.61c11.66,6.87,21.2,17.14,28.34,30.53,6.64,12.47,10.24,27.61,10.69,45,.39,16.66-2.81,31.54-9.51,44.21s-15.73,22.74-26.79,29.87a74.64,74.64,0,0,1-36.45,12C850.47,413.93,849,414,847.5,414Z"/><path d="M918.53,411.3a53.69,53.69,0,0,1-30.24-9.43c-12.39-8.44-19.83-22.2-20.42-37.75l-2.58-68a10,10,0,0,0-2.53-6.28A43.91,43.91,0,0,1,856,279.79a57.9,57.9,0,0,1-5.72-25.58,61.63,61.63,0,0,1,4.95-24.32,44.93,44.93,0,0,1,14.11-18.38,10,10,0,0,0,2.2-2.29,45.78,45.78,0,0,1,9.3-9.9,50.88,50.88,0,0,1,31.91-11.13h.13a52.72,52.72,0,0,1,30.83,10.07,48.07,48.07,0,0,1,8.24,7.54,10,10,0,0,0,2.43,2,44,44,0,0,1,16.25,17.43,57.54,57.54,0,0,1,6.54,25.87A58.9,58.9,0,0,1,972,276.64a46.88,46.88,0,0,1-4.32,7.58,10,10,0,0,0-1.81,6.13l1,27.24c.33,8.58.6,16.84.82,24.54.2,7.08.39,13.19.58,18.18.6,15.84-5.78,30.3-17.51,39.66a51,51,0,0,1-32.13,11.33Z"/><path d="M988.2,408.62a79.71,79.71,0,0,1-17.27-1.91,73.34,73.34,0,0,1-31.46-15.58,78.38,78.38,0,0,1-21.65-30c-4.92-11.62-7.25-25.17-6.92-40.27v-.41c.53-16.26,4.19-30.71,10.89-42.91,6.8-12.37,15.71-22.24,26.48-29.33a75.8,75.8,0,0,1,35.81-12.42c2.2-.18,4.41-.27,6.58-.27a74.52,74.52,0,0,1,29.52,6,70.33,70.33,0,0,1,29.9,24.42c8.07,11.38,12.47,25.09,13.06,40.75,0,.68,0,1.37,0,2a73.45,73.45,0,0,1-3.14,20,10,10,0,0,0,.08,6.11,41.27,41.27,0,0,1-2.19,31.19c-.19.39-.39.79-.6,1.18a76.23,76.23,0,0,1-23.05,26.52,78.45,78.45,0,0,1-30.57,13.36A79.47,79.47,0,0,1,988.2,408.62Z"/><path class="cls-1" d="M353.11,371.66a105.6,105.6,0,1,1,18-148.36A105.62,105.62,0,0,1,353.11,371.66Z"/><ellipse class="cls-1" cx="286.72" cy="100.53" rx="54.46" ry="55.53"/><ellipse class="cls-1" cx="139.24" cy="152.71" rx="54.46" ry="55.53"/><ellipse class="cls-1" cx="99.46" cy="300.93" rx="54.46" ry="55.53"/><path class="cls-2" d="M462.94,366.39a13.12,13.12,0,0,1,8.89-5.34,19.53,19.53,0,0,1,9.73.95,12.49,12.49,0,0,1,6.48,5.13,6,6,0,0,1-.39,7.05A41.31,41.31,0,0,1,473,386.5a43.68,43.68,0,0,1-36,1.61,38.49,38.49,0,0,1-15.08-10.75,43.66,43.66,0,0,1-9.1-18.5q-2.77-11.21,0-26.22,3.06-15.89,10.79-25.83a46.65,46.65,0,0,1,17.53-14.37,40.93,40.93,0,0,1,20.24-3.63,40.35,40.35,0,0,1,18.74,6,35.66,35.66,0,0,1,13,14.73q4.69,9.5,3.11,22.59-2.07,11.43-9.07,18.26a38.66,38.66,0,0,1-15.92,9.53,43.58,43.58,0,0,1-18.05,1.6,35.42,35.42,0,0,1-15.5-5.3,25,25,0,0,0,4.21,10.7,13.43,13.43,0,0,0,6.83,5.06,11.63,11.63,0,0,0,7.71-.33A14.64,14.64,0,0,0,462.94,366.39Zm4.78-35.83q1-6.07-2.69-9.94a13.87,13.87,0,0,0-8.62-4.47,15.21,15.21,0,0,0-9.78,2.26q-4.81,2.85-6.13,10-.93,5.84,2.76,9.38a15.55,15.55,0,0,0,8.76,4.26,15.08,15.08,0,0,0,9.86-2Q466.68,337.31,467.72,330.56Z"/><path class="cls-2" d="M558.9,269.43a22.69,22.69,0,0,1,.91,10.53,24,24,0,0,1-3.72,10q-2.94,4.45-7.48,4.13l-3.39-.41-3,24.83-3.16,26.18q-1.55,12.87-3,24t-2.33,18.38q-.87,7.23-6,10.15a16.09,16.09,0,0,1-10.78,2,18.48,18.48,0,0,1-9.93-5q-4.32-4.07-3.5-10.84L514.75,290,510,289.4q-4.74-.57-6.21-5.44a23.12,23.12,0,0,1-.57-10.49A26.58,26.58,0,0,1,507,263.39q2.83-4.47,6.72-4.46l4.74.57q1.15-7.64,6.19-10.47a16,16,0,0,1,10.65-1.92,17.64,17.64,0,0,1,9.81,5.08q4.19,4.17,3.6,11l3.61.44A8,8,0,0,1,558.9,269.43Z"/><path class="cls-2" d="M585,308.21q-.29-25.47,7.58-43.06t19.91-26.92a49.18,49.18,0,0,1,26.33-10.56,46.26,46.26,0,0,1,27,5.8q12.67,7,21.55,22.27t10,38.64q0,.46.15,6.93t.38,15.91q.24,9.43.44,20.57t.44,20.57q.24,9.44.38,15.91t.15,6.93Q699,386,694,388.81A25.48,25.48,0,0,1,682.82,392a25,25,0,0,1-11.45-2q-5.32-2.3-6-7.51,0-.45-.12-6.25t-.43-14.43l-10.11.38-11.47.44-11.59.44-10.45.4q0,7.05.13,12.51t.2,8.18a6.91,6.91,0,0,1-2.4,5.67,18.19,18.19,0,0,1-6.24,3.54,27.77,27.77,0,0,1-8,1.44,35.8,35.8,0,0,1-8.21-.6,17.56,17.56,0,0,1-6.58-2.59,5.85,5.85,0,0,1-2.8-4.79q-.11-2.95-.4-10.56t-.69-18.17q-.4-10.56-.78-23.52T585,308.21Zm35.54,19.35,10-.38,11.59-.44q5.9-.22,11.59-.33t10.23-.27q-.1-8.64-.25-15.69T663.63,300A52.34,52.34,0,0,0,660,281.47q-3.25-7.61-8.06-11.52a15.58,15.58,0,0,0-10.27-3.82,15.15,15.15,0,0,0-10.18,4.48q-4.73,4.39-7.91,13.27t-3.34,22.77q.09,2.27.19,8T620.54,327.56Z"/><path class="cls-2" d="M761.19,263.06q-.26-6.82,4.39-10.06a17.62,17.62,0,0,1,10.34-3.24,20.07,20.07,0,0,1,10.7,3.12,10.5,10.5,0,0,1,5.23,9l4.07,107q.22,5.68-3.76,8.79a18.16,18.16,0,0,1-9.07,3.76,20.21,20.21,0,0,1-9.94-1.21,11.82,11.82,0,0,1-6.83-6.11,31.1,31.1,0,0,1-16.75,8.26A26.63,26.63,0,0,1,732,379.06q-8.26-4.69-13.9-15.51t-5.62-28.11q0-16.61,4.95-28.4t12.27-18.33a27.71,27.71,0,0,1,16.1-7.32,24,24,0,0,1,16.21,4.39Zm-24,75.54q.24,12.51,4.36,18.94t9,6.48q4.89,0,9.09-6.15t4.4-18.94l-.33-8.63q-1.12-11.56-5.64-16.74t-9.25-4q-4.73,1.2-8.32,8.51T737.21,338.6Z"/><path class="cls-2" d="M808.39,331.8q-.19-17.06,5.61-28.88t14.78-18.19a37,37,0,0,1,19.53-7,33.94,33.94,0,0,1,19.63,4.71q9.07,5.35,15.2,16.83t6.58,29.44q.37,15.91-5.46,26.94t-14.83,16.83a39.86,39.86,0,0,1-19.55,6.43,36.55,36.55,0,0,1-19.73-4.26q-9.18-4.88-15.38-15.57T808.39,331.8Zm55.8,1.52q-.09-14.33-4.9-21.2t-10.6-6.54q-5.79.34-10.41,7.56T834,334.46q.25,12.74,5.05,19.26t10.37,6.43q5.57-.1,10.21-6.76T864.19,333.32Z"/><path class="cls-2" d="M939.64,241.49a22.69,22.69,0,0,1,2.55,10.25,24,24,0,0,1-2.11,10.43q-2.2,4.86-6.74,5.26l-3.41.13q.44,11.59.95,25l1,26.35q.49,12.95.81,24.2t.59,18.52q.28,7.27-4.36,11a16.09,16.09,0,0,1-10.33,3.69A18.49,18.49,0,0,1,908,372.95q-4.9-3.34-5.16-10.16l-3.57-94.05-4.77.18q-4.77.18-7-4.4a23.14,23.14,0,0,1-2.21-10.27,26.59,26.59,0,0,1,2.1-10.55q2.09-4.86,5.94-5.46l4.77-.18q-.07-7.73,4.46-11.32a16,16,0,0,1,10.22-3.57,17.63,17.63,0,0,1,10.48,3.47q4.79,3.46,5.28,10.26l3.63-.14A8,8,0,0,1,939.64,241.49Z"/><path class="cls-2" d="M1000.76,347a13.12,13.12,0,0,1,7.94-6.67,19.56,19.56,0,0,1,9.76-.6,12.5,12.5,0,0,1,7.21,4,6,6,0,0,1,.72,7,41.34,41.34,0,0,1-12.53,14.47,43.48,43.48,0,0,1-17,7.47,43.94,43.94,0,0,1-18.32-.21,38.5,38.5,0,0,1-16.58-8.24A43.63,43.63,0,0,1,950,347.46q-4.5-10.63-4.17-25.89.52-16.17,6.59-27.21a46.67,46.67,0,0,1,15.05-17,40.94,40.94,0,0,1,19.42-6.77,40.34,40.34,0,0,1,19.45,3,35.65,35.65,0,0,1,15.15,12.51q6.13,8.64,6.63,21.82-.24,11.61-6.09,19.46a38.64,38.64,0,0,1-14.22,11.92,43.6,43.6,0,0,1-17.58,4.42,35.43,35.43,0,0,1-16.15-2.8,25,25,0,0,0,5.84,9.9,13.43,13.43,0,0,0,7.54,3.92,11.64,11.64,0,0,0,7.56-1.54A14.63,14.63,0,0,0,1000.76,347Zm-.92-36.14q0-6.14-4.22-9.4a13.87,13.87,0,0,0-9.22-3.06,15.2,15.2,0,0,0-9.3,3.77q-4.3,3.58-4.48,10.86,0,5.92,4.2,8.83a15.55,15.55,0,0,0,9.32,2.83,15.08,15.08,0,0,0,9.42-3.54Q999.87,317.7,999.84,310.87Z"/><path class="cls-2" d="M305.19,214.66q18.76,2.72,31.74,10.79a67.08,67.08,0,0,1,20.57,19.34,63.7,63.7,0,0,1,10,24.58,75.86,75.86,0,0,1,.15,26.43,74.24,74.24,0,0,1-9.24,25.07,70.29,70.29,0,0,1-18.16,20.51,73.62,73.62,0,0,1-26.35,12.54q-15.18,4-34,1.28l-1.15-.17-2.25,15.57a7.24,7.24,0,0,1-3.31,5.13,17.59,17.59,0,0,1-6.81,2.64,25.87,25.87,0,0,1-8.31.08,31.1,31.1,0,0,1-8-2.21,16.21,16.21,0,0,1-5.93-4.25,7.58,7.58,0,0,1-1.77-6.33l21.08-145.58q1-5.23,6.77-7.2a28.52,28.52,0,0,1,12.45-1.24l0-.23ZM284,325.41q15.56,2.25,26.89-1.72t18-11.3a33.23,33.23,0,0,0,8.37-16.67,30.76,30.76,0,0,0-2.06-18.06q-3.76-8.72-13.4-15.61t-25.43-9.17a14.65,14.65,0,0,0-2.78-.17L283.1,325.27Z"/><path d="M798.05,325.58"/><path class="cls-3" d="M798.05,325.58"/></g></g></svg>