<svg xmlns="http://www.w3.org/2000/svg" viewBox="0 0 60.59 60.59"><defs><style>.cls-1{fill:#fff;stroke:gray;stroke-miterlimit:10;stroke-width:2px;}.cls-2{fill:#3f4345;}</style></defs><title>Asset 151</title><g id="Layer_2" data-name="Layer 2"><g id="Camada_1" data-name="Camada 1"><path class="cls-1" d="M30.29,1A29.3,29.3,0,1,1,1,30.29,29.29,29.29,0,0,1,30.29,1"/><path class="cls-2" d="M38,45.46l-3.11.46c-.14,0-.31,0-.36.15-.19.7-.75.62-1.27.63-2.44,0-4.87,0-7.31.06-.41,0-.77-.08-.93-.5a.78.78,0,0,1,.21-.85.8.8,0,0,1,.59-.21l5.83-.59c-.26-.93-.26-.93.41-1.78a6.68,6.68,0,0,0,1.07-1.6,1,1,0,0,1,1-.64,18,18,0,0,1,5.76.22,11,11,0,0,1,4.5,2.34,8.8,8.8,0,0,0,4.21,2.13c.49.1.86.26.74.82s-.56.54-1,.43a11.68,11.68,0,0,1-4.12-1.88l-.49-.33c.07.6.14,1.16.22,1.72s-.09.69-.59.74c-1.74.16-3.48,0-5.22,0-.36,0-.39-.17-.33-.45a1.59,1.59,0,0,1,.42-.65c.51-.37,1.17-.24,1.7-.54,0-.22-.18-.31-.3-.45a2.82,2.82,0,0,1-.76-.92,1.49,1.49,0,0,1,.38-1.62,1.38,1.38,0,0,0,0,2.17l.49.51c.23.38-.13.4-.32.46A3.22,3.22,0,0,1,38,45.46Z"/><path class="cls-2" d="M19.62,30.15V39.9A1.23,1.23,0,0,0,19.07,41c0,.32-.29.45-.6.49s-.85.05-.8.72c0,.34-.4.33-.67.37a.51.51,0,0,1-.62-.36,1.83,1.83,0,0,1-.09-.7V33.84a1.9,1.9,0,0,1,.28-1.08c.5-.76.35-1.2-.47-1.56l-.2-.08s-1.17-1.81-1.17-1.84c0-.4-.09-.8-.11-1.21,0-.58,0-1.17.79-1.3.33-.05.27-.34.31-.56.13-.71-.16-1.42,0-2.13.13-.47.17-.95.78-1.06.25-.05.33-.33.48-.51a.54.54,0,0,1,.64-.18c.26.1.27.32.23.54a1.59,1.59,0,0,0,.73,1.78A1.12,1.12,0,0,1,19,26a11.83,11.83,0,0,0-.12,1.78.37.37,0,0,0,.18.36A12.47,12.47,0,0,1,19.62,30.15Z"/><path class="cls-2" d="M19.07,28.29c-.25,0-.49-.18-.4-.39.23-.6-.1-1.24.15-1.81a1,1,0,0,0-.45-1.41,1.47,1.47,0,0,1-.68-1.78c0-.19.16-.39-.12-.46a.36.36,0,0,0-.49.29.6.6,0,0,1-.7.55c-.25,0-.26.18-.33.37-.34.9,0,1.82-.13,2.72,0,.26,0,.51-.35.61-.7.21-.91.56-.74,1.25a4.14,4.14,0,0,1,.08,1c0,.22,0,.47.2.58.43.2.92.3.7,1-.07.22.27.19.44.23a1.07,1.07,0,0,1,.56,1.79,1.12,1.12,0,0,0-.32.88v8c0,.73.25.89.92.62.13-.06.19-.11.15-.26s-.41-.28-.17-.44a1.27,1.27,0,0,1,1-.37c.45.07.75.1.48-.58-.2-.51.33-.71.79-.78,0,1.78,0,3.56,0,5.34a1.8,1.8,0,0,1-2,1.85,1.89,1.89,0,0,1-1.87-1.93q0-6.28,0-12.57c0-.26.13-.55-.21-.76-1.3-.8-1.48-2.07-1.35-3.43.07-.66.2-1.32.3-2,.46,0,.64-.2.68-.75a5.72,5.72,0,0,1,.59-2.81c.39-.6.87-1.13,1.24-1.74a.63.63,0,0,1,.83-.23.58.58,0,0,1,.34.71,9.25,9.25,0,0,0,.15,1.82.93.93,0,0,0,.31.63,2.64,2.64,0,0,1,.81,2.4c.11-.27.26-.46.57-.37a.37.37,0,0,1,.13.15,1,1,0,0,1-.21,1c-.3.27.11.53,0,.79a.11.11,0,0,1,0,.13c-.11.24-.32.22-.43.05C19.24,27.84,19.2,28.22,19.07,28.29Z"/><path class="cls-2" d="M23.07,11.17a3.5,3.5,0,0,1,3.46,3.54,3.51,3.51,0,1,1-7-.11A3.51,3.51,0,0,1,23.07,11.17Z"/><path class="cls-2" d="M27.37,28.89c.63.71.7,1.25.24,1.82s-1,.61-1.85.18a13.67,13.67,0,0,1-4.65-3.79,5.93,5.93,0,0,0-.47-.53,6,6,0,0,1-1.29-2,11.77,11.77,0,0,1-.69-1.73c-.12-.44-.21-.88-.29-1.33a1.4,1.4,0,0,1,2.71-.71c.17.44.25.91.4,1.37A10.83,10.83,0,0,0,27,28.51.66.66,0,0,1,27.37,28.89Z"/><path class="cls-2" d="M27.47,43.6a1.32,1.32,0,0,1-1.12-.85.78.78,0,0,1,.25-1,11.69,11.69,0,0,1,.91-.81,1.63,1.63,0,0,0,.14-2.82c-.25-.2-.1-.29.09-.4a1.35,1.35,0,0,1,1.84.55,1.05,1.05,0,0,0,.8.57,3.84,3.84,0,0,1,2.1,1.38c.17.21.29.41.1.7a11.31,11.31,0,0,1-1.68,2.21c-.21.2-.4.33-.68.15a1.85,1.85,0,0,0-2.14.06A3.8,3.8,0,0,1,27.47,43.6Z"/><path class="cls-2" d="M29,27.55a1.82,1.82,0,0,0-1.27-.83c-2.64-.79-5.18-3.07-5.36-6.08a2.14,2.14,0,0,0-2.06-2,3.55,3.55,0,0,0-3.41,1.8,15.73,15.73,0,0,0-2.35,6,4.61,4.61,0,0,0,.62.14c.28,0,.38-.1.29-.4a5.55,5.55,0,0,1,.12-2.26c.13-1.13,1.16-1.81,1.67-2.76.13-.23.38-.19.58-.13a.39.39,0,0,1,.25.52,6.69,6.69,0,0,0,.16,2.14.73.73,0,0,0,.27.49,1.85,1.85,0,0,1,.71,2.21c-.07.21,0,.4.21.45s.43-.09.34-.32c-.17-.4.23-.23.31-.36A11.41,11.41,0,0,1,18.66,23a4.51,4.51,0,0,1-.45-1.56,1.55,1.55,0,0,1,1.21-1.75,1.48,1.48,0,0,1,1.79,1.12,10.87,10.87,0,0,0,4.1,6.54,23.93,23.93,0,0,0,2.09,1.34.75.75,0,0,1,.53.43c.12.22.26.23.47.14A1.26,1.26,0,0,0,29,27.55Z"/><path class="cls-2" d="M19.07,28.29l.18-.63c.21.21.19.7.66.49a16.61,16.61,0,0,0-.29,2A3.32,3.32,0,0,1,19.07,28.29Z"/><path class="cls-2" d="M39.57,44.62l.85.61-2.28.42L38,45.46a9.09,9.09,0,0,1,1.54-.37c.28-.1.18-.19.08-.32s-.06-.07,0-.1S39.55,44.62,39.57,44.62Z"/><path class="cls-2" d="M20.09,26.25a.66.66,0,0,1,.29.61L19.94,28c-.27-.35-.64-.68,0-1C20.22,26.85,19.89,26.47,20.09,26.25Z"/><path class="cls-2" d="M39.57,44.62v.15c-1.07-.8-1.35-1.48-1-2.3A.82.82,0,0,1,39.71,42a1.5,1.5,0,0,0-.89,1.26C38.81,43.83,39.26,44.18,39.57,44.62Z"/><path class="cls-2" d="M29,40.28c.35,0,.54.26.53.52a.46.46,0,0,1-.49.49.47.47,0,0,1-.48-.5A.52.52,0,0,1,29,40.28Z"/></g></g></svg>