<svg xmlns="http://www.w3.org/2000/svg" viewBox="0 0 60.59 60.59"><defs><style>.cls-1{fill:#fff;stroke:gray;stroke-miterlimit:10;stroke-width:2px;}.cls-2{fill:#3f4345;}</style></defs><title>Ativo 105</title><g id="Camada_2" data-name="Camada 2"><g id="Camada_2-2" data-name="Camada 2"><circle class="cls-1" cx="30.29" cy="30.29" r="29.29"/><path class="cls-2" d="M33.88,25.34a4.16,4.16,0,0,1-.15-.52c-.33-2.2-1.2-3.06-3.27-3.22a3.37,3.37,0,0,0-3.78,2.71,4.11,4.11,0,0,0-.47,1.63c-2.53.25-5.07,0-7.61.1a1.9,1.9,0,0,1-1.07-.1,12.16,12.16,0,0,1,4-9.78c5-4.84,13.81-4.65,18.46.4a10.71,10.71,0,0,1,2.74,8.35,64.31,64.31,0,0,0-7.57-.15C34.61,24.74,34.28,25.11,33.88,25.34Z"/><path class="cls-2" d="M33.88,25.34c0-.69.32-1,1-.94,2.33,0,4.66,0,7,0,.38,0,.75,0,.81.5a9.29,9.29,0,0,1-4.26,8.47c-.42.29-.84.57-1.28.84a3.4,3.4,0,0,0-1.77,3c0,.61-.19.9-.89.89-2.44,0-4.88,0-7.32,0-.61,0-.79-.18-.81-.8a6.92,6.92,0,0,1,3.25-6.61c.8-.51,1.53-1.12,2.31-1.65A3.91,3.91,0,0,0,33.88,25.34Z"/><path class="cls-2" d="M30.8,48.48c-1.2,0-2.4,0-3.61,0-.58,0-.84-.12-.83-.77,0-2,0-3.93,0-5.9,0-.5,0-.81.69-.8,2.51,0,5,0,7.54,0,.61,0,.72.24.71.77,0,2,0,3.93,0,5.9,0,.63-.2.81-.81.79C33.28,48.45,32,48.48,30.8,48.48Z"/></g></g></svg>