<svg xmlns="http://www.w3.org/2000/svg" viewBox="0 0 60.59 60.59"><defs><style>.cls-1{fill:#fff;stroke:#727677;stroke-miterlimit:10;stroke-width:2px;}.cls-2{fill:#3f4345;}</style></defs><title>Ativo 79</title><g id="Camada_2" data-name="Camada 2"><g id="Camada_1-2" data-name="Camada 1"><circle class="cls-1" cx="30.29" cy="30.29" r="29.29"/><path class="cls-2" d="M48.17,25.5c0-.11,0-.23.06-.33h0c0-.25,0-.5,0-.75a6.07,6.07,0,0,0-6.31-5.77q-11.2,0-22.4,0a6.07,6.07,0,0,0-6.33,5.85q0,5.82,0,11.64c0,.64.09,1.27.13,1.91.11-.07.06-.17.06-.26,0,.1,0,.19.06.29a1.64,1.64,0,0,0,.1.26,6.41,6.41,0,0,0,5.82,3.76c.3,0,.39.11.38.37a6.78,6.78,0,0,0,0,1c.1.12.06.26.06.39,0,1.59,0,3.18,0,4.77,0,.13-.07.28.09.38a1.4,1.4,0,0,0,.52-.32q4.19-3.11,8.36-6.23a1.64,1.64,0,0,1,1.05-.35H41.74a7.62,7.62,0,0,0,1.8-.22,6,6,0,0,0,4.69-5.28.19.19,0,0,0-.06-.07Q48.17,31,48.17,25.5Zm-24.3,5.77s0,.1,0,.14A2.22,2.22,0,0,1,22.76,33a3.67,3.67,0,0,1-5.29-.91,1.16,1.16,0,0,1-.23-.72,3.15,3.15,0,0,1,2.43-3.9A3.3,3.3,0,0,1,23.87,31.27Zm10.28,0s0,.1,0,.14a1.39,1.39,0,0,1-.36.91A3.69,3.69,0,0,1,27.69,32a1,1,0,0,1-.17-.63A3.16,3.16,0,0,1,30,27.5,3.29,3.29,0,0,1,34.15,31.27Zm10.28,0s0,.1,0,.14a1.39,1.39,0,0,1-.36.91A3.69,3.69,0,0,1,38,32a1,1,0,0,1-.18-.63,3.16,3.16,0,0,1,2.47-3.91A3.3,3.3,0,0,1,44.43,31.27Z"/><path class="cls-2" d="M48.3,37.42q0-5.58,0-11.16a7.22,7.22,0,0,0-.07-1.09h0a3.56,3.56,0,0,0,0,.88q0,5.19,0,10.38c0,.06,0,.11,0,.17a.62.62,0,0,1,0,.24c0,.38,0,.76,0,1.14A1.33,1.33,0,0,0,48.3,37.42Z"/></g></g></svg>