<svg xmlns="http://www.w3.org/2000/svg" viewBox="0 0 62.4 62.4"><defs><style>.cls-1{fill:#fff;stroke:#727677;stroke-miterlimit:10;stroke-width:2px;}.cls-2{fill:#3f4345;}</style></defs><title>Ativo 83</title><g id="Camada_2" data-name="Camada 2"><g id="Camada_1-2" data-name="Camada 1"><circle class="cls-1" cx="31.2" cy="31.2" r="30.2"/><path class="cls-2" d="M11.69,20.37H52.13V48.74H11.69ZM38.28,29h-.15c0-.15-.11-.3-.15-.45-.25-1-.54-2-.74-3-.13-.65-.41-.82-1.07-.84a1,1,0,0,0-1.26,1c-.2.92-.51,1.82-.77,2.73l-.2.67a1.48,1.48,0,0,1-.33-.67c-.27-1.05-.55-2.1-.8-3.16-.09-.38-.25-.56-.66-.53s-.73,0-1.1,0A1,1,0,0,0,31,25c.54,1.65,1.07,3.3,1.65,4.94a.83.83,0,0,0,.55.38,7.89,7.89,0,0,0,.9,0c.44,0,.62-.17.73-.56.31-1.09.64-2.17,1-3.25A5,5,0,0,1,36,26c.35,1.31.66,2.46,1,3.61.1.37.15.77.67.69s1.31.34,1.62-.6c.51-1.53,1.1-3,1.65-4.56a1.63,1.63,0,0,0,0-.39c-1.51-.15-1.51-.15-1.88,1.19Zm-16.68-.28a2.06,2.06,0,0,1-.31-.28,31.32,31.32,0,0,1-1.95-2.69,2.08,2.08,0,0,0-2.4-1,.7.7,0,0,0-.46.48c0,1.53,0,3.05,0,4.58,0,.6.37.54.74.52s.86.18.83-.5-.06-1.38-.08-2.08c0-.53,0-1.06,0-1.59a31.46,31.46,0,0,1,2.62,3.29,1.85,1.85,0,0,0,1.92.89c.41,0,.57-.16.56-.58,0-1.48,0-3,0-4.44,0-.59-.29-.61-.73-.61s-.76,0-.74.61C21.62,26.45,21.59,27.55,21.59,28.75Zm1.3,6.73c2.17,0,4.35,0,6.52,0,.51,0,.76-.08.76-.67s-.26-.64-.73-.63q-6.56,0-13.12,0c-.5,0-.75.09-.76.68s.35.63.8.63Zm18,0c2.22,0,4.45,0,6.67,0,.47,0,.66-.11.66-.62s-.12-.7-.66-.69q-6.6,0-13.2,0c-.49,0-.71.12-.71.66s.21.66.71.65C36.54,35.47,38.71,35.48,40.89,35.48Zm-18,6.82c2.2,0,4.39,0,6.59,0,.5,0,.7-.13.7-.66s-.24-.64-.72-.64q-6.59,0-13.18,0c-.5,0-.7.13-.7.66s.24.65.72.64C18.49,42.29,20.69,42.3,22.88,42.3ZM41,41c-2.2,0-4.4,0-6.6,0-.48,0-.71.1-.71.65s.21.66.71.65q6.6,0,13.2,0c.53,0,.67-.18.67-.68S48,41,47.56,41C45.36,41,43.16,41,41,41Zm-18.1,3.47c-2.2,0-4.39,0-6.59,0-.5,0-.7.13-.7.66s.23.64.71.64q6.59,0,13.18,0c.5,0,.7-.12.7-.66s-.23-.65-.71-.64C27.26,44.5,25.06,44.49,22.87,44.49Zm18,1.28c2.22,0,4.45,0,6.67,0,.47,0,.65-.13.66-.62s-.15-.68-.68-.68q-6.6,0-13.2,0c-.5,0-.7.13-.7.66s.24.64.72.64C36.55,45.76,38.72,45.77,40.9,45.77Zm-16-18.25c0,.76,0,1.53,0,2.29,0,.38.13.54.52.54,1.32,0,2.64,0,4,0,.16,0,.31-.28.46-.43-.16-.14-.31-.39-.48-.4a16.4,16.4,0,0,0-2.15,0c-.61,0-.73-.23-.73-.77s.1-.89.76-.85a15.37,15.37,0,0,0,1.6,0c.29,0,.72.13.7-.41s-.44-.37-.73-.38c-.55,0-1.11,0-1.67,0s-.66-.26-.65-.74.08-.76.64-.73,1.34,0,2,0c.31,0,.55,0,.55-.43s-.22-.45-.54-.44c-1.23,0-2.46,0-3.68,0-.42,0-.59.13-.57.56C24.95,26,24.93,26.78,24.93,27.52Zm-2.1,11.34c2.22,0,4.44,0,6.66,0,.52,0,.68-.19.67-.69s-.38-.53-.75-.53H19.21c-1,0-2,0-3.05,0-.42,0-.55.18-.57.58,0,.56.25.65.72.64C18.48,38.85,20.65,38.86,22.83,38.86Zm18.05,0c2.22,0,4.44,0,6.66,0,.51,0,.69-.15.68-.68s-.34-.55-.73-.55h-13c-.45,0-.81,0-.8.64s.36.59.78.59Zm6.07-13.92A5.55,5.55,0,0,0,43,25a1.34,1.34,0,0,0-1,1.25A1.27,1.27,0,0,0,43,27.47c.64.26,1.33.41,2,.69.29.13.47.48.71.74-.25.2-.5.57-.76.58-.72,0-1.46-.08-2.19-.08a.8.8,0,0,0-.6.34c-.19.34.08.49.39.55a6.53,6.53,0,0,0,3.69-.17,1.56,1.56,0,0,0,1.17-1.33c0-.69-.48-1.08-1.06-1.31s-1.24-.37-1.83-.64c-.29-.13-.5-.46-.75-.7.28-.2.55-.55.85-.57a15.71,15.71,0,0,1,2.1.08Z"/><path class="cls-2" d="M42.59,9.74l3.32,9H18.73l0-.15Z"/><path class="cls-2" d="M10,21.82V38.44l-.13,0c-.19-.48-.4-1-.57-1.44-1.55-4.18-3.08-8.37-4.64-12.55-.2-.53-.08-.72.43-.9,1.42-.49,2.82-1,4.23-1.56C9.53,21.95,9.75,21.9,10,21.82Z"/></g></g></svg>