<svg xmlns="http://www.w3.org/2000/svg" viewBox="0 0 62.4 62.4"><defs><style>.cls-1{fill:#fff;stroke:#727677;stroke-miterlimit:10;stroke-width:2px;}.cls-2{fill:#3f4345;}</style></defs><title>Ativo 74</title><g id="Camada_2" data-name="Camada 2"><g id="Camada_1-2" data-name="Camada 1"><circle class="cls-1" cx="31.2" cy="31.2" r="30.2"/><ellipse class="cls-2" cx="15.84" cy="30.43" rx="5.23" ry="7.37" transform="translate(-14.34 14.13) rotate(-34.12)"/><ellipse class="cls-2" cx="24.73" cy="18.88" rx="5.23" ry="7.37" transform="translate(-3.94 6.79) rotate(-14.5)"/><ellipse class="cls-2" cx="38.05" cy="18.88" rx="7.37" ry="5.23" transform="translate(12.73 52.98) rotate(-79.79)"/><ellipse class="cls-2" cx="46.93" cy="29.54" rx="7.37" ry="5.23" transform="translate(1.4 61.2) rotate(-67)"/><path class="cls-2" d="M18.44,47C16.59,42,22,33.6,29.1,31.92a11.52,11.52,0,0,1,5.33,0c7.9,2,13.18,12.3,10.66,16.88a4,4,0,0,1-1.78,1.78c-2.88,1.3-5.48-2.77-10.66-2.66a16.47,16.47,0,0,0-4.44.89c-3.53,1-4.55,2.15-6.22,1.78A5.59,5.59,0,0,1,18.44,47Z"/></g></g></svg>